<?xml version="1.0" encoding="UTF-8"?>
<svg xmlns="http://www.w3.org/2000/svg" width="512" height="512" viewBox="0 0 512 512" fill="none">
  <defs>
    <linearGradient id="goldRose" x1="0%" x2="100%" y1="0%" y2="100%">
      <stop offset="0%" stop-color="#f3d89f"/>
      <stop offset="50%" stop-color="#d99a8b"/>
      <stop offset="100%" stop-color="#cfa15f"/>
    </linearGradient>
    <linearGradient id="creamBlush" x1="0%" x2="100%" y1="0%" y2="100%">
      <stop offset="0%" stop-color="#fffaf1"/>
      <stop offset="100%" stop-color="#f5c6ce"/>
    </linearGradient>
    <linearGradient id="roseDeep" x1="0%" x2="0%" y1="0%" y2="100%">
      <stop offset="0%" stop-color="#c56f82"/>
      <stop offset="100%" stop-color="#a8586c"/>
    </linearGradient>
    <linearGradient id="goldShine" x1="0%" x2="100%" y1="0%" y2="0%">
      <stop offset="0%" stop-color="#cfa15f" stop-opacity="0.4"/>
      <stop offset="50%" stop-color="#f3d89f" stop-opacity="0.9"/>
      <stop offset="100%" stop-color="#cfa15f" stop-opacity="0.4"/>
    </linearGradient>
    <radialGradient id="softGlow" cx="50%" cy="48%" r="55%">
      <stop offset="0%" stop-color="#ffffff" stop-opacity="0.95"/>
      <stop offset="45%" stop-color="#f5c6ce" stop-opacity="0.5"/>
      <stop offset="100%" stop-color="#d99a8b" stop-opacity="0"/>
    </radialGradient>
    <radialGradient id="warmGlow" cx="50%" cy="50%" r="50%">
      <stop offset="0%" stop-color="#f3d89f" stop-opacity="0.6"/>
      <stop offset="60%" stop-color="#cfa15f" stop-opacity="0.2"/>
      <stop offset="100%" stop-color="#cfa15f" stop-opacity="0"/>
    </radialGradient>
    <filter id="gentleShadow" x="-20%" y="-20%" width="140%" height="140%" color-interpolation-filters="sRGB">
      <feDropShadow dx="0" dy="22" stdDeviation="28" flood-color="#11172d" flood-opacity="0.18"/>
    </filter>
    <filter id="innerGlow" x="-30%" y="-30%" width="160%" height="160%" color-interpolation-filters="sRGB">
      <feGaussianBlur stdDeviation="8" result="blur"/>
      <feComposite in="SourceGraphic" in2="blur" operator="over"/>
    </filter>
  </defs>
  <ellipse cx="256" cy="306" rx="214" ry="88" fill="url(#softGlow)"/>
    <path d="M108 312 C103 252 156 213 213 232 C237 175 324 174 349 238 C403 230 442 270 433 326 C423 379 366 398 282 390 L178 388 C130 387 110 358 108 312Z" fill="#f8dfe4" stroke="url(#goldRose)" stroke-width="10" filter="url(#gentleShadow)"/>
    <path d="M168 318 C214 344 304 344 352 318" stroke="#c56f82" stroke-width="7" stroke-linecap="round" opacity="0.48"/>
    <path d="M154 154 C156.16 168.04 157.96 169.84 172 172 C157.96 174.16 156.16 175.96 154 190 C151.84 175.96 150.04 174.16 136 172 C150.04 169.84 151.84 168.04 154 154Z" fill="url(#goldRose)" opacity="1"/>
    <path d="M374 176 C375.68 186.92 377.08 188.32 388 190 C377.08 191.68 375.68 193.08 374 204 C372.32 193.08 370.92 191.68 360 190 C370.92 188.32 372.32 186.92 374 176Z" fill="#d99a8b" opacity="0.82"/>
    <path d="M420 342 C421.44 351.36 422.64 352.56 432 354 C422.64 355.44 421.44 356.64 420 366 C418.56 356.64 417.36 355.44 408 354 C417.36 352.56 418.56 351.36 420 342Z" fill="#cfa15f" opacity="0.68"/>
</svg>