<?xml version="1.0" encoding="UTF-8"?>
<svg xmlns="http://www.w3.org/2000/svg" width="512" height="512" viewBox="0 0 512 512" fill="none">
  <defs>
    <linearGradient id="goldRose" x1="0%" x2="100%" y1="0%" y2="100%">
      <stop offset="0%" stop-color="#f3d89f"/>
      <stop offset="50%" stop-color="#d99a8b"/>
      <stop offset="100%" stop-color="#cfa15f"/>
    </linearGradient>
    <linearGradient id="creamBlush" x1="0%" x2="100%" y1="0%" y2="100%">
      <stop offset="0%" stop-color="#fffaf1"/>
      <stop offset="100%" stop-color="#f5c6ce"/>
    </linearGradient>
    <linearGradient id="roseDeep" x1="0%" x2="0%" y1="0%" y2="100%">
      <stop offset="0%" stop-color="#c56f82"/>
      <stop offset="100%" stop-color="#a8586c"/>
    </linearGradient>
    <linearGradient id="goldShine" x1="0%" x2="100%" y1="0%" y2="0%">
      <stop offset="0%" stop-color="#cfa15f" stop-opacity="0.4"/>
      <stop offset="50%" stop-color="#f3d89f" stop-opacity="0.9"/>
      <stop offset="100%" stop-color="#cfa15f" stop-opacity="0.4"/>
    </linearGradient>
    <radialGradient id="softGlow" cx="50%" cy="48%" r="55%">
      <stop offset="0%" stop-color="#ffffff" stop-opacity="0.95"/>
      <stop offset="45%" stop-color="#f5c6ce" stop-opacity="0.5"/>
      <stop offset="100%" stop-color="#d99a8b" stop-opacity="0"/>
    </radialGradient>
    <radialGradient id="warmGlow" cx="50%" cy="50%" r="50%">
      <stop offset="0%" stop-color="#f3d89f" stop-opacity="0.6"/>
      <stop offset="60%" stop-color="#cfa15f" stop-opacity="0.2"/>
      <stop offset="100%" stop-color="#cfa15f" stop-opacity="0"/>
    </radialGradient>
    <filter id="gentleShadow" x="-20%" y="-20%" width="140%" height="140%" color-interpolation-filters="sRGB">
      <feDropShadow dx="0" dy="22" stdDeviation="28" flood-color="#11172d" flood-opacity="0.18"/>
    </filter>
    <filter id="innerGlow" x="-30%" y="-30%" width="160%" height="160%" color-interpolation-filters="sRGB">
      <feGaussianBlur stdDeviation="8" result="blur"/>
      <feComposite in="SourceGraphic" in2="blur" operator="over"/>
    </filter>
  </defs>
  <mask id="crescentMask">
      <rect width="512" height="512" fill="white"/>
      <circle cx="292" cy="215" r="150" fill="black"/>
    </mask>
    <circle cx="250" cy="256" r="170" fill="url(#goldRose)" mask="url(#crescentMask)" filter="url(#gentleShadow)"/>
    <path d="M169 160 C118 241 140 346 224 392" stroke="#fff7ea" stroke-width="11" stroke-linecap="round" opacity="0.75"/>
    <path d="M340 108 C342.88 126.72 345.28 129.12 364 132 C345.28 134.88 342.88 137.28 340 156 C337.12 137.28 334.72 134.88 316 132 C334.72 129.12 337.12 126.72 340 108Z" fill="url(#goldRose)" opacity="1"/>
    <path d="M386 316 C387.92 328.48 389.52 330.08 402 332 C389.52 333.92 387.92 335.52 386 348 C384.08 335.52 382.48 333.92 370 332 C382.48 330.08 384.08 328.48 386 316Z" fill="#d99a8b" opacity="0.86"/>
    <path d="M120 370 C121.44 379.36 122.64 380.56 132 382 C122.64 383.44 121.44 384.64 120 394 C118.56 384.64 117.36 383.44 108 382 C117.36 380.56 118.56 379.36 120 370Z" fill="#cfa15f" opacity="0.72"/>
    <circle cx="218" cy="206" r="8" fill="#fff7ea" opacity="0.82"/>
    <circle cx="180" cy="286" r="6" fill="#fff7ea" opacity="0.7"/>
</svg>