<?xml version="1.0" encoding="UTF-8"?>
<svg xmlns="http://www.w3.org/2000/svg" width="512" height="512" viewBox="0 0 512 512" fill="none">
  <defs>
    <linearGradient id="goldRose" x1="0%" x2="100%" y1="0%" y2="100%">
      <stop offset="0%" stop-color="#f3d89f"/>
      <stop offset="50%" stop-color="#d99a8b"/>
      <stop offset="100%" stop-color="#cfa15f"/>
    </linearGradient>
    <linearGradient id="creamBlush" x1="0%" x2="100%" y1="0%" y2="100%">
      <stop offset="0%" stop-color="#fffaf1"/>
      <stop offset="100%" stop-color="#f5c6ce"/>
    </linearGradient>
    <linearGradient id="roseDeep" x1="0%" x2="0%" y1="0%" y2="100%">
      <stop offset="0%" stop-color="#c56f82"/>
      <stop offset="100%" stop-color="#a8586c"/>
    </linearGradient>
    <linearGradient id="goldShine" x1="0%" x2="100%" y1="0%" y2="0%">
      <stop offset="0%" stop-color="#cfa15f" stop-opacity="0.4"/>
      <stop offset="50%" stop-color="#f3d89f" stop-opacity="0.9"/>
      <stop offset="100%" stop-color="#cfa15f" stop-opacity="0.4"/>
    </linearGradient>
    <radialGradient id="softGlow" cx="50%" cy="48%" r="55%">
      <stop offset="0%" stop-color="#ffffff" stop-opacity="0.95"/>
      <stop offset="45%" stop-color="#f5c6ce" stop-opacity="0.5"/>
      <stop offset="100%" stop-color="#d99a8b" stop-opacity="0"/>
    </radialGradient>
    <radialGradient id="warmGlow" cx="50%" cy="50%" r="50%">
      <stop offset="0%" stop-color="#f3d89f" stop-opacity="0.6"/>
      <stop offset="60%" stop-color="#cfa15f" stop-opacity="0.2"/>
      <stop offset="100%" stop-color="#cfa15f" stop-opacity="0"/>
    </radialGradient>
    <filter id="gentleShadow" x="-20%" y="-20%" width="140%" height="140%" color-interpolation-filters="sRGB">
      <feDropShadow dx="0" dy="22" stdDeviation="28" flood-color="#11172d" flood-opacity="0.18"/>
    </filter>
    <filter id="innerGlow" x="-30%" y="-30%" width="160%" height="160%" color-interpolation-filters="sRGB">
      <feGaussianBlur stdDeviation="8" result="blur"/>
      <feComposite in="SourceGraphic" in2="blur" operator="over"/>
    </filter>
  </defs>
  <circle cx="256" cy="256" r="196" fill="url(#softGlow)"/>
    <path d="M256 134 C270.64 229.16 282.84 241.36 378 256 C282.84 270.64 270.64 282.84 256 378 C241.36 282.84 229.16 270.64 134 256 C229.16 241.36 241.36 229.16 256 134Z" fill="url(#goldRose)" opacity="1"/>
    <path d="M358 119.5 C361.66 143.29 364.71 146.34 388.5 150 C364.71 153.66 361.66 156.71 358 180.5 C354.34 156.71 351.29 153.66 327.5 150 C351.29 146.34 354.34 143.29 358 119.5Z" fill="#d99a8b" opacity="0.82"/>
    <path d="M142 340.04 C144.6352 357.1688 146.8312 359.3648 163.96 362 C146.8312 364.6352 144.6352 366.8312 142 383.96 C139.3648 366.8312 137.1688 364.6352 120.03999999999999 362 C137.1688 359.3648 139.3648 357.1688 142 340.04Z" fill="#cfa15f" opacity="0.72"/>
    <circle cx="256" cy="256" r="24.400000000000002" fill="#fff7ea" opacity="0.58"/>
</svg>