<?xml version="1.0" encoding="UTF-8"?>
<svg xmlns="http://www.w3.org/2000/svg" width="512" height="512" viewBox="0 0 512 512" fill="none">
  <defs>
    <linearGradient id="goldRose" x1="0%" x2="100%" y1="0%" y2="100%">
      <stop offset="0%" stop-color="#f3d89f"/>
      <stop offset="50%" stop-color="#d99a8b"/>
      <stop offset="100%" stop-color="#cfa15f"/>
    </linearGradient>
    <linearGradient id="creamBlush" x1="0%" x2="100%" y1="0%" y2="100%">
      <stop offset="0%" stop-color="#fffaf1"/>
      <stop offset="100%" stop-color="#f5c6ce"/>
    </linearGradient>
    <linearGradient id="roseDeep" x1="0%" x2="0%" y1="0%" y2="100%">
      <stop offset="0%" stop-color="#c56f82"/>
      <stop offset="100%" stop-color="#a8586c"/>
    </linearGradient>
    <linearGradient id="goldShine" x1="0%" x2="100%" y1="0%" y2="0%">
      <stop offset="0%" stop-color="#cfa15f" stop-opacity="0.4"/>
      <stop offset="50%" stop-color="#f3d89f" stop-opacity="0.9"/>
      <stop offset="100%" stop-color="#cfa15f" stop-opacity="0.4"/>
    </linearGradient>
    <radialGradient id="softGlow" cx="50%" cy="48%" r="55%">
      <stop offset="0%" stop-color="#ffffff" stop-opacity="0.95"/>
      <stop offset="45%" stop-color="#f5c6ce" stop-opacity="0.5"/>
      <stop offset="100%" stop-color="#d99a8b" stop-opacity="0"/>
    </radialGradient>
    <radialGradient id="warmGlow" cx="50%" cy="50%" r="50%">
      <stop offset="0%" stop-color="#f3d89f" stop-opacity="0.6"/>
      <stop offset="60%" stop-color="#cfa15f" stop-opacity="0.2"/>
      <stop offset="100%" stop-color="#cfa15f" stop-opacity="0"/>
    </radialGradient>
    <filter id="gentleShadow" x="-20%" y="-20%" width="140%" height="140%" color-interpolation-filters="sRGB">
      <feDropShadow dx="0" dy="22" stdDeviation="28" flood-color="#11172d" flood-opacity="0.18"/>
    </filter>
    <filter id="innerGlow" x="-30%" y="-30%" width="160%" height="160%" color-interpolation-filters="sRGB">
      <feGaussianBlur stdDeviation="8" result="blur"/>
      <feComposite in="SourceGraphic" in2="blur" operator="over"/>
    </filter>
  </defs>
  <circle cx="256" cy="256" r="194" fill="url(#softGlow)"/>
    <polygon points="256,88 285.0839408597468,185.7851555291422 374.79393923934,137.20606076066002 326.21484447085777,226.91605914025317 424,256 326.21484447085777,285.0839408597468 374.79393923934,374.79393923934 285.0839408597468,326.21484447085777 256,424 226.9160591402532,326.21484447085777 137.20606076066002,374.79393923934 185.78515552914223,285.08394085974686 88,256 185.78515552914223,226.91605914025314 137.20606076066,137.20606076066002 226.91605914025314,185.78515552914223" fill="url(#goldRose)" filter="url(#gentleShadow)"/>
    <polygon points="256,164 272.0727041593338,217.19705963452594 321.0538238691624,190.9461761308376 294.80294036547406,239.92729584066623 348,256 294.80294036547406,272.0727041593338 321.0538238691624,321.0538238691624 272.0727041593338,294.80294036547406 256,348 239.92729584066623,294.80294036547406 190.9461761308376,321.0538238691624 217.19705963452597,272.0727041593338 164,256 217.19705963452597,239.9272958406662 190.9461761308376,190.9461761308376 239.9272958406662,217.19705963452597" fill="#fff7ea" opacity="0.56"/>
    <path d="M18 11 C18.84 16.46 19.54 17.16 25 18 C19.54 18.84 18.84 19.54 18 25 C17.16 19.54 16.46 18.84 11 18 C16.46 17.16 17.16 16.46 18 11Z" fill="#d99a8b" opacity="0.52"/><path d="M155 99 C156.2 106.8 157.2 107.8 165 109 C157.2 110.2 156.2 111.2 155 119 C153.8 111.2 152.8 110.2 145 109 C152.8 107.8 153.8 106.8 155 99Z" fill="#cfa15f" opacity="0.52"/><path d="M292 187 C293.56 197.14 294.86 198.44 305 200 C294.86 201.56 293.56 202.86 292 213 C290.44 202.86 289.14 201.56 279 200 C289.14 198.44 290.44 197.14 292 187Z" fill="#d99a8b" opacity="0.52"/><path d="M429 275 C430.92 287.48 432.52 289.08 445 291 C432.52 292.92 430.92 294.52 429 307 C427.08 294.52 425.48 292.92 413 291 C425.48 289.08 427.08 287.48 429 275Z" fill="#cfa15f" opacity="0.52"/><path d="M54 375 C54.84 380.46 55.54 381.16 61 382 C55.54 382.84 54.84 383.54 54 389 C53.16 383.54 52.46 382.84 47 382 C52.46 381.16 53.16 380.46 54 375Z" fill="#d99a8b" opacity="0.52"/><path d="M191 463 C192.2 470.8 193.2 471.8 201 473 C193.2 474.2 192.2 475.2 191 483 C189.8 475.2 188.8 474.2 181 473 C188.8 471.8 189.8 470.8 191 463Z" fill="#cfa15f" opacity="0.52"/><path d="M328 39 C329.56 49.14 330.86 50.44 341 52 C330.86 53.56 329.56 54.86 328 65 C326.44 54.86 325.14 53.56 315 52 C325.14 50.44 326.44 49.14 328 39Z" fill="#d99a8b" opacity="0.52"/><path d="M465 127 C466.92 139.48 468.52 141.08 481 143 C468.52 144.92 466.92 146.52 465 159 C463.08 146.52 461.48 144.92 449 143 C461.48 141.08 463.08 139.48 465 127Z" fill="#cfa15f" opacity="0.52"/>
</svg>