<?xml version="1.0" encoding="UTF-8"?>
<svg xmlns="http://www.w3.org/2000/svg" width="512" height="512" viewBox="0 0 512 512" fill="none">
  <defs>
    <linearGradient id="goldRose" x1="0%" x2="100%" y1="0%" y2="100%">
      <stop offset="0%" stop-color="#f3d89f"/>
      <stop offset="50%" stop-color="#d99a8b"/>
      <stop offset="100%" stop-color="#cfa15f"/>
    </linearGradient>
    <linearGradient id="creamBlush" x1="0%" x2="100%" y1="0%" y2="100%">
      <stop offset="0%" stop-color="#fffaf1"/>
      <stop offset="100%" stop-color="#f5c6ce"/>
    </linearGradient>
    <linearGradient id="roseDeep" x1="0%" x2="0%" y1="0%" y2="100%">
      <stop offset="0%" stop-color="#c56f82"/>
      <stop offset="100%" stop-color="#a8586c"/>
    </linearGradient>
    <linearGradient id="goldShine" x1="0%" x2="100%" y1="0%" y2="0%">
      <stop offset="0%" stop-color="#cfa15f" stop-opacity="0.4"/>
      <stop offset="50%" stop-color="#f3d89f" stop-opacity="0.9"/>
      <stop offset="100%" stop-color="#cfa15f" stop-opacity="0.4"/>
    </linearGradient>
    <radialGradient id="softGlow" cx="50%" cy="48%" r="55%">
      <stop offset="0%" stop-color="#ffffff" stop-opacity="0.95"/>
      <stop offset="45%" stop-color="#f5c6ce" stop-opacity="0.5"/>
      <stop offset="100%" stop-color="#d99a8b" stop-opacity="0"/>
    </radialGradient>
    <radialGradient id="warmGlow" cx="50%" cy="50%" r="50%">
      <stop offset="0%" stop-color="#f3d89f" stop-opacity="0.6"/>
      <stop offset="60%" stop-color="#cfa15f" stop-opacity="0.2"/>
      <stop offset="100%" stop-color="#cfa15f" stop-opacity="0"/>
    </radialGradient>
    <filter id="gentleShadow" x="-20%" y="-20%" width="140%" height="140%" color-interpolation-filters="sRGB">
      <feDropShadow dx="0" dy="22" stdDeviation="28" flood-color="#11172d" flood-opacity="0.18"/>
    </filter>
    <filter id="innerGlow" x="-30%" y="-30%" width="160%" height="160%" color-interpolation-filters="sRGB">
      <feGaussianBlur stdDeviation="8" result="blur"/>
      <feComposite in="SourceGraphic" in2="blur" operator="over"/>
    </filter>
  </defs>
  <circle cx="256" cy="256" r="226" fill="url(#softGlow)"/>
    <line x1="394" y1="256" x2="460" y2="256" stroke="url(#goldRose)" stroke-width="10" stroke-linecap="round"/><line x1="383.4953754865576" y1="308.8103136663824" x2="444.4714246323025" y2="334.06742020247833" stroke="url(#goldRose)" stroke-width="10" stroke-linecap="round"/><line x1="353.58073580374355" y1="353.58073580374355" x2="400.2497833620557" y2="400.2497833620557" stroke="url(#goldRose)" stroke-width="10" stroke-linecap="round"/><line x1="308.8103136663824" y1="383.4953754865576" x2="334.06742020247833" y2="444.4714246323025" stroke="url(#goldRose)" stroke-width="10" stroke-linecap="round"/><line x1="256" y1="394" x2="256" y2="460" stroke="url(#goldRose)" stroke-width="10" stroke-linecap="round"/><line x1="203.1896863336176" y1="383.4953754865576" x2="177.9325797975217" y2="444.4714246323025" stroke="url(#goldRose)" stroke-width="10" stroke-linecap="round"/><line x1="158.41926419625645" y1="353.58073580374355" x2="111.7502166379443" y2="400.2497833620557" stroke="url(#goldRose)" stroke-width="10" stroke-linecap="round"/><line x1="128.50462451344242" y1="308.8103136663824" x2="67.5285753676975" y2="334.06742020247833" stroke="url(#goldRose)" stroke-width="10" stroke-linecap="round"/><line x1="118" y1="256" x2="52" y2="256" stroke="url(#goldRose)" stroke-width="10" stroke-linecap="round"/><line x1="128.50462451344242" y1="203.18968633361763" x2="67.52857536769747" y2="177.93257979752173" stroke="url(#goldRose)" stroke-width="10" stroke-linecap="round"/><line x1="158.41926419625642" y1="158.41926419625645" x2="111.75021663794428" y2="111.7502166379443" stroke="url(#goldRose)" stroke-width="10" stroke-linecap="round"/><line x1="203.18968633361754" y1="128.50462451344248" x2="177.93257979752156" y2="67.52857536769756" stroke="url(#goldRose)" stroke-width="10" stroke-linecap="round"/><line x1="255.99999999999997" y1="118" x2="255.99999999999997" y2="52" stroke="url(#goldRose)" stroke-width="10" stroke-linecap="round"/><line x1="308.8103136663824" y1="128.50462451344245" x2="334.0674202024784" y2="67.52857536769753" stroke="url(#goldRose)" stroke-width="10" stroke-linecap="round"/><line x1="353.58073580374355" y1="158.41926419625642" x2="400.24978336205567" y2="111.75021663794428" stroke="url(#goldRose)" stroke-width="10" stroke-linecap="round"/><line x1="383.4953754865575" y1="203.18968633361752" x2="444.47142463230244" y2="177.93257979752156" stroke="url(#goldRose)" stroke-width="10" stroke-linecap="round"/>
    <circle cx="256" cy="256" r="134" fill="url(#goldRose)" filter="url(#gentleShadow)"/>
    <circle cx="256" cy="256" r="104" fill="#fff7ea" opacity="0.92"/>
    <path d="M202 258 C226 286 286 286 310 258" stroke="#c56f82" stroke-width="8" stroke-linecap="round"/>
    <circle cx="216" cy="226" r="10" fill="#11172d" opacity="0.72"/>
    <circle cx="296" cy="226" r="10" fill="#11172d" opacity="0.72"/>
    <path d="M256 93 C258.64 110.16 260.84 112.36 278 115 C260.84 117.64 258.64 119.84 256 137 C253.36 119.84 251.16 117.64 234 115 C251.16 112.36 253.36 110.16 256 93Z" fill="url(#goldRose)" opacity="1"/>
    <path d="M384 324 C385.92 336.48 387.52 338.08 400 340 C387.52 341.92 385.92 343.52 384 356 C382.08 343.52 380.48 341.92 368 340 C380.48 338.08 382.08 336.48 384 324Z" fill="#d99a8b" opacity="0.82"/>
    <path d="M126 330 C127.68 340.92 129.08 342.32 140 344 C129.08 345.68 127.68 347.08 126 358 C124.32 347.08 122.92 345.68 112 344 C122.92 342.32 124.32 340.92 126 330Z" fill="#cfa15f" opacity="0.78"/>
</svg>