<?xml version="1.0" encoding="UTF-8"?>
<svg xmlns="http://www.w3.org/2000/svg" width="1400" height="2200" viewBox="0 0 1400 2200" fill="none">
  <defs>
    <linearGradient id="goldRose" x1="0%" x2="100%" y1="0%" y2="100%">
      <stop offset="0%" stop-color="#f3d89f"/>
      <stop offset="50%" stop-color="#d99a8b"/>
      <stop offset="100%" stop-color="#cfa15f"/>
    </linearGradient>
    <linearGradient id="creamBlush" x1="0%" x2="100%" y1="0%" y2="100%">
      <stop offset="0%" stop-color="#fffaf1"/>
      <stop offset="100%" stop-color="#f5c6ce"/>
    </linearGradient>
    <linearGradient id="roseDeep" x1="0%" x2="0%" y1="0%" y2="100%">
      <stop offset="0%" stop-color="#c56f82"/>
      <stop offset="100%" stop-color="#a8586c"/>
    </linearGradient>
    <linearGradient id="goldShine" x1="0%" x2="100%" y1="0%" y2="0%">
      <stop offset="0%" stop-color="#cfa15f" stop-opacity="0.4"/>
      <stop offset="50%" stop-color="#f3d89f" stop-opacity="0.9"/>
      <stop offset="100%" stop-color="#cfa15f" stop-opacity="0.4"/>
    </linearGradient>
    <radialGradient id="softGlow" cx="50%" cy="48%" r="55%">
      <stop offset="0%" stop-color="#ffffff" stop-opacity="0.95"/>
      <stop offset="45%" stop-color="#f5c6ce" stop-opacity="0.5"/>
      <stop offset="100%" stop-color="#d99a8b" stop-opacity="0"/>
    </radialGradient>
    <radialGradient id="warmGlow" cx="50%" cy="50%" r="50%">
      <stop offset="0%" stop-color="#f3d89f" stop-opacity="0.6"/>
      <stop offset="60%" stop-color="#cfa15f" stop-opacity="0.2"/>
      <stop offset="100%" stop-color="#cfa15f" stop-opacity="0"/>
    </radialGradient>
    <filter id="gentleShadow" x="-20%" y="-20%" width="140%" height="140%" color-interpolation-filters="sRGB">
      <feDropShadow dx="0" dy="22" stdDeviation="28" flood-color="#11172d" flood-opacity="0.18"/>
    </filter>
    <filter id="innerGlow" x="-30%" y="-30%" width="160%" height="160%" color-interpolation-filters="sRGB">
      <feGaussianBlur stdDeviation="8" result="blur"/>
      <feComposite in="SourceGraphic" in2="blur" operator="over"/>
    </filter>
  </defs>
  <rect x="112" y="112" width="1176" height="1976" rx="112" fill="#11172d" stroke="#cfa15f" stroke-width="30.799999999999997" filter="url(#gentleShadow)"/>
  <rect x="162.4" y="162.4" width="1075.2" height="1875.2" rx="69.44" fill="none" stroke="#cfa15f" stroke-width="14" opacity="0.78"/>
  <rect x="212.79999999999998" y="212.79999999999998" width="974.4000000000001" height="1774.4" rx="49.28" fill="none" stroke="#d99a8b" stroke-width="8.4" opacity="0.72"/>
    <circle cx="288.40000000000003" cy="246.40000000000003" r="4.2" fill="#cfa15f" opacity="0.35"/><circle cx="330.40000000000003" cy="246.40000000000003" r="4.2" fill="#cfa15f" opacity="0.35"/><circle cx="372.40000000000003" cy="246.40000000000003" r="4.2" fill="#cfa15f" opacity="0.35"/><circle cx="414.40000000000003" cy="246.40000000000003" r="4.2" fill="#cfa15f" opacity="0.35"/><circle cx="456.40000000000003" cy="246.40000000000003" r="4.2" fill="#cfa15f" opacity="0.35"/><circle cx="498.40000000000003" cy="246.40000000000003" r="4.2" fill="#cfa15f" opacity="0.35"/><circle cx="540.4000000000001" cy="246.40000000000003" r="4.2" fill="#cfa15f" opacity="0.35"/><circle cx="582.4000000000001" cy="246.40000000000003" r="4.2" fill="#cfa15f" opacity="0.35"/><circle cx="624.4000000000001" cy="246.40000000000003" r="4.2" fill="#cfa15f" opacity="0.35"/><circle cx="666.4000000000001" cy="246.40000000000003" r="4.2" fill="#cfa15f" opacity="0.35"/><circle cx="708.4000000000001" cy="246.40000000000003" r="4.2" fill="#cfa15f" opacity="0.35"/><circle cx="750.4000000000001" cy="246.40000000000003" r="4.2" fill="#cfa15f" opacity="0.35"/><circle cx="792.4000000000001" cy="246.40000000000003" r="4.2" fill="#cfa15f" opacity="0.35"/><circle cx="834.4000000000001" cy="246.40000000000003" r="4.2" fill="#cfa15f" opacity="0.35"/><circle cx="876.4000000000001" cy="246.40000000000003" r="4.2" fill="#cfa15f" opacity="0.35"/><circle cx="918.4000000000001" cy="246.40000000000003" r="4.2" fill="#cfa15f" opacity="0.35"/><circle cx="960.4000000000001" cy="246.40000000000003" r="4.2" fill="#cfa15f" opacity="0.35"/><circle cx="1002.4000000000001" cy="246.40000000000003" r="4.2" fill="#cfa15f" opacity="0.35"/><circle cx="1044.4" cy="246.40000000000003" r="4.2" fill="#cfa15f" opacity="0.35"/><circle cx="1086.4" cy="246.40000000000003" r="4.2" fill="#cfa15f" opacity="0.35"/><circle cx="1128.4" cy="246.40000000000003" r="4.2" fill="#cfa15f" opacity="0.35"/><circle cx="288.40000000000003" cy="1953.6" r="4.2" fill="#cfa15f" opacity="0.35"/><circle cx="330.40000000000003" cy="1953.6" r="4.2" fill="#cfa15f" opacity="0.35"/><circle cx="372.40000000000003" cy="1953.6" r="4.2" fill="#cfa15f" opacity="0.35"/><circle cx="414.40000000000003" cy="1953.6" r="4.2" fill="#cfa15f" opacity="0.35"/><circle cx="456.40000000000003" cy="1953.6" r="4.2" fill="#cfa15f" opacity="0.35"/><circle cx="498.40000000000003" cy="1953.6" r="4.2" fill="#cfa15f" opacity="0.35"/><circle cx="540.4000000000001" cy="1953.6" r="4.2" fill="#cfa15f" opacity="0.35"/><circle cx="582.4000000000001" cy="1953.6" r="4.2" fill="#cfa15f" opacity="0.35"/><circle cx="624.4000000000001" cy="1953.6" r="4.2" fill="#cfa15f" opacity="0.35"/><circle cx="666.4000000000001" cy="1953.6" r="4.2" fill="#cfa15f" opacity="0.35"/><circle cx="708.4000000000001" cy="1953.6" r="4.2" fill="#cfa15f" opacity="0.35"/><circle cx="750.4000000000001" cy="1953.6" r="4.2" fill="#cfa15f" opacity="0.35"/><circle cx="792.4000000000001" cy="1953.6" r="4.2" fill="#cfa15f" opacity="0.35"/><circle cx="834.4000000000001" cy="1953.6" r="4.2" fill="#cfa15f" opacity="0.35"/><circle cx="876.4000000000001" cy="1953.6" r="4.2" fill="#cfa15f" opacity="0.35"/><circle cx="918.4000000000001" cy="1953.6" r="4.2" fill="#cfa15f" opacity="0.35"/><circle cx="960.4000000000001" cy="1953.6" r="4.2" fill="#cfa15f" opacity="0.35"/><circle cx="1002.4000000000001" cy="1953.6" r="4.2" fill="#cfa15f" opacity="0.35"/><circle cx="1044.4" cy="1953.6" r="4.2" fill="#cfa15f" opacity="0.35"/><circle cx="1086.4" cy="1953.6" r="4.2" fill="#cfa15f" opacity="0.35"/><circle cx="1128.4" cy="1953.6" r="4.2" fill="#cfa15f" opacity="0.35"/><circle cx="246.40000000000003" cy="288.40000000000003" r="4.2" fill="#cfa15f" opacity="0.35"/><circle cx="246.40000000000003" cy="330.40000000000003" r="4.2" fill="#cfa15f" opacity="0.35"/><circle cx="246.40000000000003" cy="372.40000000000003" r="4.2" fill="#cfa15f" opacity="0.35"/><circle cx="246.40000000000003" cy="414.40000000000003" r="4.2" fill="#cfa15f" opacity="0.35"/><circle cx="246.40000000000003" cy="456.40000000000003" r="4.2" fill="#cfa15f" opacity="0.35"/><circle cx="246.40000000000003" cy="498.40000000000003" r="4.2" fill="#cfa15f" opacity="0.35"/><circle cx="246.40000000000003" cy="540.4000000000001" r="4.2" fill="#cfa15f" opacity="0.35"/><circle cx="246.40000000000003" cy="582.4000000000001" r="4.2" fill="#cfa15f" opacity="0.35"/><circle cx="246.40000000000003" cy="624.4000000000001" r="4.2" fill="#cfa15f" opacity="0.35"/><circle cx="246.40000000000003" cy="666.4000000000001" r="4.2" fill="#cfa15f" opacity="0.35"/><circle cx="246.40000000000003" cy="708.4000000000001" r="4.2" fill="#cfa15f" opacity="0.35"/><circle cx="246.40000000000003" cy="750.4000000000001" r="4.2" fill="#cfa15f" opacity="0.35"/><circle cx="246.40000000000003" cy="792.4000000000001" r="4.2" fill="#cfa15f" opacity="0.35"/><circle cx="246.40000000000003" cy="834.4000000000001" r="4.2" fill="#cfa15f" opacity="0.35"/><circle cx="246.40000000000003" cy="876.4000000000001" r="4.2" fill="#cfa15f" opacity="0.35"/><circle cx="246.40000000000003" cy="918.4000000000001" r="4.2" fill="#cfa15f" opacity="0.35"/><circle cx="246.40000000000003" cy="960.4000000000001" r="4.2" fill="#cfa15f" opacity="0.35"/><circle cx="246.40000000000003" cy="1002.4000000000001" r="4.2" fill="#cfa15f" opacity="0.35"/><circle cx="246.40000000000003" cy="1044.4" r="4.2" fill="#cfa15f" opacity="0.35"/><circle cx="246.40000000000003" cy="1086.4" r="4.2" fill="#cfa15f" opacity="0.35"/><circle cx="246.40000000000003" cy="1128.4" r="4.2" fill="#cfa15f" opacity="0.35"/><circle cx="246.40000000000003" cy="1170.4" r="4.2" fill="#cfa15f" opacity="0.35"/><circle cx="246.40000000000003" cy="1212.4" r="4.2" fill="#cfa15f" opacity="0.35"/><circle cx="246.40000000000003" cy="1254.4" r="4.2" fill="#cfa15f" opacity="0.35"/><circle cx="246.40000000000003" cy="1296.4" r="4.2" fill="#cfa15f" opacity="0.35"/><circle cx="246.40000000000003" cy="1338.4" r="4.2" fill="#cfa15f" opacity="0.35"/><circle cx="246.40000000000003" cy="1380.4" r="4.2" fill="#cfa15f" opacity="0.35"/><circle cx="246.40000000000003" cy="1422.4" r="4.2" fill="#cfa15f" opacity="0.35"/><circle cx="246.40000000000003" cy="1464.4" r="4.2" fill="#cfa15f" opacity="0.35"/><circle cx="246.40000000000003" cy="1506.4" r="4.2" fill="#cfa15f" opacity="0.35"/><circle cx="246.40000000000003" cy="1548.4" r="4.2" fill="#cfa15f" opacity="0.35"/><circle cx="246.40000000000003" cy="1590.4" r="4.2" fill="#cfa15f" opacity="0.35"/><circle cx="246.40000000000003" cy="1632.4" r="4.2" fill="#cfa15f" opacity="0.35"/><circle cx="246.40000000000003" cy="1674.4" r="4.2" fill="#cfa15f" opacity="0.35"/><circle cx="246.40000000000003" cy="1716.4" r="4.2" fill="#cfa15f" opacity="0.35"/><circle cx="246.40000000000003" cy="1758.4" r="4.2" fill="#cfa15f" opacity="0.35"/><circle cx="246.40000000000003" cy="1800.4" r="4.2" fill="#cfa15f" opacity="0.35"/><circle cx="246.40000000000003" cy="1842.4" r="4.2" fill="#cfa15f" opacity="0.35"/><circle cx="246.40000000000003" cy="1884.4" r="4.2" fill="#cfa15f" opacity="0.35"/><circle cx="246.40000000000003" cy="1926.4" r="4.2" fill="#cfa15f" opacity="0.35"/><circle cx="1153.6" cy="288.40000000000003" r="4.2" fill="#cfa15f" opacity="0.35"/><circle cx="1153.6" cy="330.40000000000003" r="4.2" fill="#cfa15f" opacity="0.35"/><circle cx="1153.6" cy="372.40000000000003" r="4.2" fill="#cfa15f" opacity="0.35"/><circle cx="1153.6" cy="414.40000000000003" r="4.2" fill="#cfa15f" opacity="0.35"/><circle cx="1153.6" cy="456.40000000000003" r="4.2" fill="#cfa15f" opacity="0.35"/><circle cx="1153.6" cy="498.40000000000003" r="4.2" fill="#cfa15f" opacity="0.35"/><circle cx="1153.6" cy="540.4000000000001" r="4.2" fill="#cfa15f" opacity="0.35"/><circle cx="1153.6" cy="582.4000000000001" r="4.2" fill="#cfa15f" opacity="0.35"/><circle cx="1153.6" cy="624.4000000000001" r="4.2" fill="#cfa15f" opacity="0.35"/><circle cx="1153.6" cy="666.4000000000001" r="4.2" fill="#cfa15f" opacity="0.35"/><circle cx="1153.6" cy="708.4000000000001" r="4.2" fill="#cfa15f" opacity="0.35"/><circle cx="1153.6" cy="750.4000000000001" r="4.2" fill="#cfa15f" opacity="0.35"/><circle cx="1153.6" cy="792.4000000000001" r="4.2" fill="#cfa15f" opacity="0.35"/><circle cx="1153.6" cy="834.4000000000001" r="4.2" fill="#cfa15f" opacity="0.35"/><circle cx="1153.6" cy="876.4000000000001" r="4.2" fill="#cfa15f" opacity="0.35"/><circle cx="1153.6" cy="918.4000000000001" r="4.2" fill="#cfa15f" opacity="0.35"/><circle cx="1153.6" cy="960.4000000000001" r="4.2" fill="#cfa15f" opacity="0.35"/><circle cx="1153.6" cy="1002.4000000000001" r="4.2" fill="#cfa15f" opacity="0.35"/><circle cx="1153.6" cy="1044.4" r="4.2" fill="#cfa15f" opacity="0.35"/><circle cx="1153.6" cy="1086.4" r="4.2" fill="#cfa15f" opacity="0.35"/><circle cx="1153.6" cy="1128.4" r="4.2" fill="#cfa15f" opacity="0.35"/><circle cx="1153.6" cy="1170.4" r="4.2" fill="#cfa15f" opacity="0.35"/><circle cx="1153.6" cy="1212.4" r="4.2" fill="#cfa15f" opacity="0.35"/><circle cx="1153.6" cy="1254.4" r="4.2" fill="#cfa15f" opacity="0.35"/><circle cx="1153.6" cy="1296.4" r="4.2" fill="#cfa15f" opacity="0.35"/><circle cx="1153.6" cy="1338.4" r="4.2" fill="#cfa15f" opacity="0.35"/><circle cx="1153.6" cy="1380.4" r="4.2" fill="#cfa15f" opacity="0.35"/><circle cx="1153.6" cy="1422.4" r="4.2" fill="#cfa15f" opacity="0.35"/><circle cx="1153.6" cy="1464.4" r="4.2" fill="#cfa15f" opacity="0.35"/><circle cx="1153.6" cy="1506.4" r="4.2" fill="#cfa15f" opacity="0.35"/><circle cx="1153.6" cy="1548.4" r="4.2" fill="#cfa15f" opacity="0.35"/><circle cx="1153.6" cy="1590.4" r="4.2" fill="#cfa15f" opacity="0.35"/><circle cx="1153.6" cy="1632.4" r="4.2" fill="#cfa15f" opacity="0.35"/><circle cx="1153.6" cy="1674.4" r="4.2" fill="#cfa15f" opacity="0.35"/><circle cx="1153.6" cy="1716.4" r="4.2" fill="#cfa15f" opacity="0.35"/><circle cx="1153.6" cy="1758.4" r="4.2" fill="#cfa15f" opacity="0.35"/><circle cx="1153.6" cy="1800.4" r="4.2" fill="#cfa15f" opacity="0.35"/><circle cx="1153.6" cy="1842.4" r="4.2" fill="#cfa15f" opacity="0.35"/><circle cx="1153.6" cy="1884.4" r="4.2" fill="#cfa15f" opacity="0.35"/><circle cx="1153.6" cy="1926.4" r="4.2" fill="#cfa15f" opacity="0.35"/>
    <circle cx="700" cy="1100" r="476.00000000000006" fill="none" stroke="#d99a8b" stroke-width="3" stroke-dasharray="8 14" opacity="0.3"/>
    <circle cx="700" cy="1100" r="392.00000000000006" fill="none" stroke="#cfa15f" stroke-width="5" stroke-dasharray="16 20" opacity="0.4"/>
    <path d="M1134 1088 C1135.44 1097.36 1136.64 1098.56 1146 1100 C1136.64 1101.44 1135.44 1102.64 1134 1112 C1132.56 1102.64 1131.36 1101.44 1122 1100 C1131.36 1098.56 1132.56 1097.36 1134 1088Z" fill="#cfa15f" opacity="0.5"/><path d="M1006.8843430349616 1398.8843430349616 C1007.8443430349616 1405.1243430349616 1008.6443430349616 1405.9243430349616 1014.8843430349616 1406.8843430349616 C1008.6443430349616 1407.8443430349616 1007.8443430349616 1408.6443430349616 1006.8843430349616 1414.8843430349616 C1005.9243430349616 1408.6443430349616 1005.1243430349616 1407.8443430349616 998.8843430349616 1406.8843430349616 C1005.1243430349616 1405.9243430349616 1005.9243430349616 1405.1243430349616 1006.8843430349616 1398.8843430349616Z" fill="#d99a8b" opacity="0.5"/><path d="M700 1522 C701.44 1531.36 702.64 1532.56 712 1534 C702.64 1535.44 701.44 1536.64 700 1546 C698.56 1536.64 697.36 1535.44 688 1534 C697.36 1532.56 698.56 1531.36 700 1522Z" fill="#d99a8b" opacity="0.5"/><path d="M393.1156569650384 1398.8843430349616 C394.0756569650384 1405.1243430349616 394.8756569650384 1405.9243430349616 401.1156569650384 1406.8843430349616 C394.8756569650384 1407.8443430349616 394.0756569650384 1408.6443430349616 393.1156569650384 1414.8843430349616 C392.1556569650384 1408.6443430349616 391.3556569650384 1407.8443430349616 385.1156569650384 1406.8843430349616 C391.3556569650384 1405.9243430349616 392.1556569650384 1405.1243430349616 393.1156569650384 1398.8843430349616Z" fill="#cfa15f" opacity="0.5"/><path d="M266 1088 C267.44 1097.36 268.64 1098.56 278 1100 C268.64 1101.44 267.44 1102.64 266 1112 C264.56 1102.64 263.36 1101.44 254 1100 C263.36 1098.56 264.56 1097.36 266 1088Z" fill="#d99a8b" opacity="0.5"/><path d="M393.1156569650383 785.1156569650384 C394.07565696503826 791.3556569650384 394.8756569650383 792.1556569650384 401.1156569650383 793.1156569650384 C394.8756569650383 794.0756569650384 394.07565696503826 794.8756569650384 393.1156569650383 801.1156569650384 C392.1556569650383 794.8756569650384 391.3556569650383 794.0756569650384 385.1156569650383 793.1156569650384 C391.3556569650383 792.1556569650384 392.1556569650383 791.3556569650384 393.1156569650383 785.1156569650384Z" fill="#d99a8b" opacity="0.5"/><path d="M699.9999999999999 654 C701.4399999999999 663.36 702.6399999999999 664.56 711.9999999999999 666 C702.6399999999999 667.44 701.4399999999999 668.64 699.9999999999999 678 C698.5599999999998 668.64 697.3599999999999 667.44 687.9999999999999 666 C697.3599999999999 664.56 698.5599999999998 663.36 699.9999999999999 654Z" fill="#cfa15f" opacity="0.5"/><path d="M1006.8843430349616 785.1156569650383 C1007.8443430349616 791.3556569650383 1008.6443430349616 792.1556569650382 1014.8843430349616 793.1156569650383 C1008.6443430349616 794.0756569650383 1007.8443430349616 794.8756569650383 1006.8843430349616 801.1156569650383 C1005.9243430349616 794.8756569650383 1005.1243430349616 794.0756569650383 998.8843430349616 793.1156569650383 C1005.1243430349616 792.1556569650382 1005.9243430349616 791.3556569650383 1006.8843430349616 785.1156569650383Z" fill="#d99a8b" opacity="0.5"/>
    <circle cx="700" cy="1100" r="308" fill="#292733" stroke="url(#goldRose)" stroke-width="18"/>
    <polygon points="700,876 728.9308674868008,1030.1547073421468 858.3919189857867,941.6080810142134 769.8452926578533,1071.0691325131993 924,1100 769.8452926578533,1128.9308674868007 858.3919189857867,1258.3919189857866 728.9308674868008,1169.8452926578532 700,1324 671.0691325131992,1169.8452926578532 541.6080810142134,1258.3919189857866 630.1547073421467,1128.930867486801 476,1100 630.1547073421467,1071.0691325131993 541.6080810142133,941.6080810142134 671.0691325131992,1030.1547073421468" fill="#fff7ea" opacity="0.92"/>
    <polygon points="700,988 710.8703998943058,1059.4311152958592 756,1003.0051547761428 729.698484809835,1070.301515190165 796.9948452238572,1044 740.5688847041408,1089.1296001056942 812,1100 740.5688847041408,1110.8703998943058 796.9948452238572,1156 729.698484809835,1129.698484809835 756,1196.994845223857 710.8703998943059,1140.5688847041408 700,1212 689.1296001056942,1140.5688847041408 644,1196.994845223857 670.301515190165,1129.698484809835 603.005154776143,1156 659.4311152958592,1110.8703998943058 588,1100 659.4311152958592,1089.1296001056942 603.0051547761428,1044 670.301515190165,1070.301515190165 644,1003.005154776143 689.1296001056941,1059.4311152958592" fill="#cfa15f" opacity="0.35"/>
    <path d="M450 1480 H950" stroke="#cfa15f" stroke-width="4" stroke-linecap="round" opacity="0.35"/><path d="M500 1500 H900" stroke="#d99a8b" stroke-width="3" stroke-linecap="round" opacity="0.25"/>
    <path d="M18 11 C18.84 16.46 19.54 17.16 25 18 C19.54 18.84 18.84 19.54 18 25 C17.16 19.54 16.46 18.84 11 18 C16.46 17.16 17.16 16.46 18 11Z" fill="#d99a8b" opacity="0.52"/><path d="M155 99 C156.2 106.8 157.2 107.8 165 109 C157.2 110.2 156.2 111.2 155 119 C153.8 111.2 152.8 110.2 145 109 C152.8 107.8 153.8 106.8 155 99Z" fill="#cfa15f" opacity="0.52"/><path d="M292 187 C293.56 197.14 294.86 198.44 305 200 C294.86 201.56 293.56 202.86 292 213 C290.44 202.86 289.14 201.56 279 200 C289.14 198.44 290.44 197.14 292 187Z" fill="#d99a8b" opacity="0.52"/><path d="M429 275 C430.92 287.48 432.52 289.08 445 291 C432.52 292.92 430.92 294.52 429 307 C427.08 294.52 425.48 292.92 413 291 C425.48 289.08 427.08 287.48 429 275Z" fill="#cfa15f" opacity="0.52"/><path d="M566 375 C566.84 380.46 567.54 381.16 573 382 C567.54 382.84 566.84 383.54 566 389 C565.16 383.54 564.46 382.84 559 382 C564.46 381.16 565.16 380.46 566 375Z" fill="#d99a8b" opacity="0.52"/><path d="M703 463 C704.2 470.8 705.2 471.8 713 473 C705.2 474.2 704.2 475.2 703 483 C701.8 475.2 700.8 474.2 693 473 C700.8 471.8 701.8 470.8 703 463Z" fill="#cfa15f" opacity="0.52"/><path d="M840 551 C841.56 561.14 842.86 562.44 853 564 C842.86 565.56 841.56 566.86 840 577 C838.44 566.86 837.14 565.56 827 564 C837.14 562.44 838.44 561.14 840 551Z" fill="#d99a8b" opacity="0.52"/><path d="M977 639 C978.92 651.48 980.52 653.08 993 655 C980.52 656.92 978.92 658.52 977 671 C975.08 658.52 973.48 656.92 961 655 C973.48 653.08 975.08 651.48 977 639Z" fill="#cfa15f" opacity="0.52"/><path d="M1114 739 C1114.84 744.46 1115.54 745.16 1121 746 C1115.54 746.84 1114.84 747.54 1114 753 C1113.16 747.54 1112.46 746.84 1107 746 C1112.46 745.16 1113.16 744.46 1114 739Z" fill="#d99a8b" opacity="0.52"/><path d="M1251 827 C1252.2 834.8 1253.2 835.8 1261 837 C1253.2 838.2 1252.2 839.2 1251 847 C1249.8 839.2 1248.8 838.2 1241 837 C1248.8 835.8 1249.8 834.8 1251 827Z" fill="#cfa15f" opacity="0.52"/><path d="M1388 915 C1389.56 925.14 1390.86 926.44 1401 928 C1390.86 929.56 1389.56 930.86 1388 941 C1386.44 930.86 1385.14 929.56 1375 928 C1385.14 926.44 1386.44 925.14 1388 915Z" fill="#d99a8b" opacity="0.52"/><path d="M125 1003 C126.92 1015.48 128.52 1017.08 141 1019 C128.52 1020.92 126.92 1022.52 125 1035 C123.08 1022.52 121.48 1020.92 109 1019 C121.48 1017.08 123.08 1015.48 125 1003Z" fill="#cfa15f" opacity="0.52"/><path d="M262 1103 C262.84 1108.46 263.54 1109.16 269 1110 C263.54 1110.84 262.84 1111.54 262 1117 C261.16 1111.54 260.46 1110.84 255 1110 C260.46 1109.16 261.16 1108.46 262 1103Z" fill="#d99a8b" opacity="0.52"/><path d="M399 1191 C400.2 1198.8 401.2 1199.8 409 1201 C401.2 1202.2 400.2 1203.2 399 1211 C397.8 1203.2 396.8 1202.2 389 1201 C396.8 1199.8 397.8 1198.8 399 1191Z" fill="#cfa15f" opacity="0.52"/><path d="M536 1279 C537.56 1289.14 538.86 1290.44 549 1292 C538.86 1293.56 537.56 1294.86 536 1305 C534.44 1294.86 533.14 1293.56 523 1292 C533.14 1290.44 534.44 1289.14 536 1279Z" fill="#d99a8b" opacity="0.52"/><path d="M673 1367 C674.92 1379.48 676.52 1381.08 689 1383 C676.52 1384.92 674.92 1386.52 673 1399 C671.08 1386.52 669.48 1384.92 657 1383 C669.48 1381.08 671.08 1379.48 673 1367Z" fill="#cfa15f" opacity="0.52"/><path d="M810 1467 C810.84 1472.46 811.54 1473.16 817 1474 C811.54 1474.84 810.84 1475.54 810 1481 C809.16 1475.54 808.46 1474.84 803 1474 C808.46 1473.16 809.16 1472.46 810 1467Z" fill="#d99a8b" opacity="0.52"/><path d="M947 1555 C948.2 1562.8 949.2 1563.8 957 1565 C949.2 1566.2 948.2 1567.2 947 1575 C945.8 1567.2 944.8 1566.2 937 1565 C944.8 1563.8 945.8 1562.8 947 1555Z" fill="#cfa15f" opacity="0.52"/><path d="M1084 1643 C1085.56 1653.14 1086.86 1654.44 1097 1656 C1086.86 1657.56 1085.56 1658.86 1084 1669 C1082.44 1658.86 1081.14 1657.56 1071 1656 C1081.14 1654.44 1082.44 1653.14 1084 1643Z" fill="#d99a8b" opacity="0.52"/><path d="M1221 1731 C1222.92 1743.48 1224.52 1745.08 1237 1747 C1224.52 1748.92 1222.92 1750.52 1221 1763 C1219.08 1750.52 1217.48 1748.92 1205 1747 C1217.48 1745.08 1219.08 1743.48 1221 1731Z" fill="#cfa15f" opacity="0.52"/><path d="M1358 1831 C1358.84 1836.46 1359.54 1837.16 1365 1838 C1359.54 1838.84 1358.84 1839.54 1358 1845 C1357.16 1839.54 1356.46 1838.84 1351 1838 C1356.46 1837.16 1357.16 1836.46 1358 1831Z" fill="#d99a8b" opacity="0.52"/><path d="M95 1919 C96.2 1926.8 97.2 1927.8 105 1929 C97.2 1930.2 96.2 1931.2 95 1939 C93.8 1931.2 92.8 1930.2 85 1929 C92.8 1927.8 93.8 1926.8 95 1919Z" fill="#cfa15f" opacity="0.52"/><path d="M232 2007 C233.56 2017.14 234.86 2018.44 245 2020 C234.86 2021.56 233.56 2022.86 232 2033 C230.44 2022.86 229.14 2021.56 219 2020 C229.14 2018.44 230.44 2017.14 232 2007Z" fill="#d99a8b" opacity="0.52"/><path d="M369 2095 C370.92 2107.48 372.52 2109.08 385 2111 C372.52 2112.92 370.92 2114.52 369 2127 C367.08 2114.52 365.48 2112.92 353 2111 C365.48 2109.08 367.08 2107.48 369 2095Z" fill="#cfa15f" opacity="0.52"/><path d="M506 -5 C506.84 0.45999999999999996 507.54 1.1600000000000001 513 2 C507.54 2.84 506.84 3.54 506 9 C505.16 3.54 504.46 2.84 499 2 C504.46 1.1600000000000001 505.16 0.45999999999999996 506 -5Z" fill="#d99a8b" opacity="0.52"/><path d="M643 83 C644.2 90.8 645.2 91.8 653 93 C645.2 94.2 644.2 95.2 643 103 C641.8 95.2 640.8 94.2 633 93 C640.8 91.8 641.8 90.8 643 83Z" fill="#cfa15f" opacity="0.52"/><path d="M780 171 C781.56 181.14 782.86 182.44 793 184 C782.86 185.56 781.56 186.86 780 197 C778.44 186.86 777.14 185.56 767 184 C777.14 182.44 778.44 181.14 780 171Z" fill="#d99a8b" opacity="0.52"/><path d="M917 259 C918.92 271.48 920.52 273.08 933 275 C920.52 276.92 918.92 278.52 917 291 C915.08 278.52 913.48 276.92 901 275 C913.48 273.08 915.08 271.48 917 259Z" fill="#cfa15f" opacity="0.52"/><path d="M1054 359 C1054.84 364.46 1055.54 365.16 1061 366 C1055.54 366.84 1054.84 367.54 1054 373 C1053.16 367.54 1052.46 366.84 1047 366 C1052.46 365.16 1053.16 364.46 1054 359Z" fill="#d99a8b" opacity="0.52"/><path d="M1191 447 C1192.2 454.8 1193.2 455.8 1201 457 C1193.2 458.2 1192.2 459.2 1191 467 C1189.8 459.2 1188.8 458.2 1181 457 C1188.8 455.8 1189.8 454.8 1191 447Z" fill="#cfa15f" opacity="0.52"/><path d="M1328 535 C1329.56 545.14 1330.86 546.44 1341 548 C1330.86 549.56 1329.56 550.86 1328 561 C1326.44 550.86 1325.14 549.56 1315 548 C1325.14 546.44 1326.44 545.14 1328 535Z" fill="#d99a8b" opacity="0.52"/><path d="M65 623 C66.92 635.48 68.52 637.08 81 639 C68.52 640.92 66.92 642.52 65 655 C63.08 642.52 61.48 640.92 49 639 C61.48 637.08 63.08 635.48 65 623Z" fill="#cfa15f" opacity="0.52"/><path d="M202 723 C202.84 728.46 203.54 729.16 209 730 C203.54 730.84 202.84 731.54 202 737 C201.16 731.54 200.46 730.84 195 730 C200.46 729.16 201.16 728.46 202 723Z" fill="#d99a8b" opacity="0.52"/><path d="M339 811 C340.2 818.8 341.2 819.8 349 821 C341.2 822.2 340.2 823.2 339 831 C337.8 823.2 336.8 822.2 329 821 C336.8 819.8 337.8 818.8 339 811Z" fill="#cfa15f" opacity="0.52"/>
</svg>