<?xml version="1.0" encoding="UTF-8"?>
<svg xmlns="http://www.w3.org/2000/svg" width="1536" height="2304" viewBox="0 0 1536 2304" fill="none">
  <defs>
    <linearGradient id="goldRose" x1="0%" x2="100%" y1="0%" y2="100%">
      <stop offset="0%" stop-color="#f3d89f"/>
      <stop offset="50%" stop-color="#d99a8b"/>
      <stop offset="100%" stop-color="#cfa15f"/>
    </linearGradient>
    <linearGradient id="creamBlush" x1="0%" x2="100%" y1="0%" y2="100%">
      <stop offset="0%" stop-color="#fffaf1"/>
      <stop offset="100%" stop-color="#f5c6ce"/>
    </linearGradient>
    <linearGradient id="roseDeep" x1="0%" x2="0%" y1="0%" y2="100%">
      <stop offset="0%" stop-color="#c56f82"/>
      <stop offset="100%" stop-color="#a8586c"/>
    </linearGradient>
    <linearGradient id="goldShine" x1="0%" x2="100%" y1="0%" y2="0%">
      <stop offset="0%" stop-color="#cfa15f" stop-opacity="0.4"/>
      <stop offset="50%" stop-color="#f3d89f" stop-opacity="0.9"/>
      <stop offset="100%" stop-color="#cfa15f" stop-opacity="0.4"/>
    </linearGradient>
    <radialGradient id="softGlow" cx="50%" cy="48%" r="55%">
      <stop offset="0%" stop-color="#ffffff" stop-opacity="0.95"/>
      <stop offset="45%" stop-color="#f5c6ce" stop-opacity="0.5"/>
      <stop offset="100%" stop-color="#d99a8b" stop-opacity="0"/>
    </radialGradient>
    <radialGradient id="warmGlow" cx="50%" cy="50%" r="50%">
      <stop offset="0%" stop-color="#f3d89f" stop-opacity="0.6"/>
      <stop offset="60%" stop-color="#cfa15f" stop-opacity="0.2"/>
      <stop offset="100%" stop-color="#cfa15f" stop-opacity="0"/>
    </radialGradient>
    <filter id="gentleShadow" x="-20%" y="-20%" width="140%" height="140%" color-interpolation-filters="sRGB">
      <feDropShadow dx="0" dy="22" stdDeviation="28" flood-color="#11172d" flood-opacity="0.18"/>
    </filter>
    <filter id="innerGlow" x="-30%" y="-30%" width="160%" height="160%" color-interpolation-filters="sRGB">
      <feGaussianBlur stdDeviation="8" result="blur"/>
      <feComposite in="SourceGraphic" in2="blur" operator="over"/>
    </filter>
  </defs>
  <rect x="122.88" y="122.88" width="1290.24" height="2058.24" rx="122.88" fill="#fff7ea" stroke="url(#goldRose)" stroke-width="33.792" filter="url(#gentleShadow)"/>
  <rect x="178.176" y="178.176" width="1179.6480000000001" height="1947.6480000000001" rx="76.1856" fill="none" stroke="#cfa15f" stroke-width="15.36" opacity="0.78"/>
  <rect x="233.47199999999998" y="233.47199999999998" width="1069.056" height="1837.056" rx="54.0672" fill="none" stroke="#d99a8b" stroke-width="9.216000000000001" opacity="0.72"/>
    <rect x="86.01599999999999" y="86.01599999999999" width="1363.968" height="2131.968" rx="138.24" fill="none" stroke="#cfa15f" stroke-width="7.68" opacity="0.45"/>
    <circle cx="319.488" cy="270.336" r="6.144" fill="#cfa15f" opacity="0.5"/><circle cx="368.64" cy="270.336" r="6.144" fill="#cfa15f" opacity="0.5"/><circle cx="417.792" cy="270.336" r="6.144" fill="#cfa15f" opacity="0.5"/><circle cx="466.94399999999996" cy="270.336" r="6.144" fill="#cfa15f" opacity="0.5"/><circle cx="516.096" cy="270.336" r="6.144" fill="#cfa15f" opacity="0.5"/><circle cx="565.248" cy="270.336" r="6.144" fill="#cfa15f" opacity="0.5"/><circle cx="614.4000000000001" cy="270.336" r="6.144" fill="#cfa15f" opacity="0.5"/><circle cx="663.5520000000001" cy="270.336" r="6.144" fill="#cfa15f" opacity="0.5"/><circle cx="712.7040000000002" cy="270.336" r="6.144" fill="#cfa15f" opacity="0.5"/><circle cx="761.8560000000002" cy="270.336" r="6.144" fill="#cfa15f" opacity="0.5"/><circle cx="811.0080000000003" cy="270.336" r="6.144" fill="#cfa15f" opacity="0.5"/><circle cx="860.1600000000003" cy="270.336" r="6.144" fill="#cfa15f" opacity="0.5"/><circle cx="909.3120000000004" cy="270.336" r="6.144" fill="#cfa15f" opacity="0.5"/><circle cx="958.4640000000004" cy="270.336" r="6.144" fill="#cfa15f" opacity="0.5"/><circle cx="1007.6160000000004" cy="270.336" r="6.144" fill="#cfa15f" opacity="0.5"/><circle cx="1056.7680000000005" cy="270.336" r="6.144" fill="#cfa15f" opacity="0.5"/><circle cx="1105.9200000000005" cy="270.336" r="6.144" fill="#cfa15f" opacity="0.5"/><circle cx="1155.0720000000006" cy="270.336" r="6.144" fill="#cfa15f" opacity="0.5"/><circle cx="1204.2240000000006" cy="270.336" r="6.144" fill="#cfa15f" opacity="0.5"/><circle cx="319.488" cy="2033.664" r="6.144" fill="#cfa15f" opacity="0.5"/><circle cx="368.64" cy="2033.664" r="6.144" fill="#cfa15f" opacity="0.5"/><circle cx="417.792" cy="2033.664" r="6.144" fill="#cfa15f" opacity="0.5"/><circle cx="466.94399999999996" cy="2033.664" r="6.144" fill="#cfa15f" opacity="0.5"/><circle cx="516.096" cy="2033.664" r="6.144" fill="#cfa15f" opacity="0.5"/><circle cx="565.248" cy="2033.664" r="6.144" fill="#cfa15f" opacity="0.5"/><circle cx="614.4000000000001" cy="2033.664" r="6.144" fill="#cfa15f" opacity="0.5"/><circle cx="663.5520000000001" cy="2033.664" r="6.144" fill="#cfa15f" opacity="0.5"/><circle cx="712.7040000000002" cy="2033.664" r="6.144" fill="#cfa15f" opacity="0.5"/><circle cx="761.8560000000002" cy="2033.664" r="6.144" fill="#cfa15f" opacity="0.5"/><circle cx="811.0080000000003" cy="2033.664" r="6.144" fill="#cfa15f" opacity="0.5"/><circle cx="860.1600000000003" cy="2033.664" r="6.144" fill="#cfa15f" opacity="0.5"/><circle cx="909.3120000000004" cy="2033.664" r="6.144" fill="#cfa15f" opacity="0.5"/><circle cx="958.4640000000004" cy="2033.664" r="6.144" fill="#cfa15f" opacity="0.5"/><circle cx="1007.6160000000004" cy="2033.664" r="6.144" fill="#cfa15f" opacity="0.5"/><circle cx="1056.7680000000005" cy="2033.664" r="6.144" fill="#cfa15f" opacity="0.5"/><circle cx="1105.9200000000005" cy="2033.664" r="6.144" fill="#cfa15f" opacity="0.5"/><circle cx="1155.0720000000006" cy="2033.664" r="6.144" fill="#cfa15f" opacity="0.5"/><circle cx="1204.2240000000006" cy="2033.664" r="6.144" fill="#cfa15f" opacity="0.5"/><circle cx="270.336" cy="319.488" r="6.144" fill="#cfa15f" opacity="0.5"/><circle cx="270.336" cy="368.64" r="6.144" fill="#cfa15f" opacity="0.5"/><circle cx="270.336" cy="417.792" r="6.144" fill="#cfa15f" opacity="0.5"/><circle cx="270.336" cy="466.94399999999996" r="6.144" fill="#cfa15f" opacity="0.5"/><circle cx="270.336" cy="516.096" r="6.144" fill="#cfa15f" opacity="0.5"/><circle cx="270.336" cy="565.248" r="6.144" fill="#cfa15f" opacity="0.5"/><circle cx="270.336" cy="614.4000000000001" r="6.144" fill="#cfa15f" opacity="0.5"/><circle cx="270.336" cy="663.5520000000001" r="6.144" fill="#cfa15f" opacity="0.5"/><circle cx="270.336" cy="712.7040000000002" r="6.144" fill="#cfa15f" opacity="0.5"/><circle cx="270.336" cy="761.8560000000002" r="6.144" fill="#cfa15f" opacity="0.5"/><circle cx="270.336" cy="811.0080000000003" r="6.144" fill="#cfa15f" opacity="0.5"/><circle cx="270.336" cy="860.1600000000003" r="6.144" fill="#cfa15f" opacity="0.5"/><circle cx="270.336" cy="909.3120000000004" r="6.144" fill="#cfa15f" opacity="0.5"/><circle cx="270.336" cy="958.4640000000004" r="6.144" fill="#cfa15f" opacity="0.5"/><circle cx="270.336" cy="1007.6160000000004" r="6.144" fill="#cfa15f" opacity="0.5"/><circle cx="270.336" cy="1056.7680000000005" r="6.144" fill="#cfa15f" opacity="0.5"/><circle cx="270.336" cy="1105.9200000000005" r="6.144" fill="#cfa15f" opacity="0.5"/><circle cx="270.336" cy="1155.0720000000006" r="6.144" fill="#cfa15f" opacity="0.5"/><circle cx="270.336" cy="1204.2240000000006" r="6.144" fill="#cfa15f" opacity="0.5"/><circle cx="270.336" cy="1253.3760000000007" r="6.144" fill="#cfa15f" opacity="0.5"/><circle cx="270.336" cy="1302.5280000000007" r="6.144" fill="#cfa15f" opacity="0.5"/><circle cx="270.336" cy="1351.6800000000007" r="6.144" fill="#cfa15f" opacity="0.5"/><circle cx="270.336" cy="1400.8320000000008" r="6.144" fill="#cfa15f" opacity="0.5"/><circle cx="270.336" cy="1449.9840000000008" r="6.144" fill="#cfa15f" opacity="0.5"/><circle cx="270.336" cy="1499.1360000000009" r="6.144" fill="#cfa15f" opacity="0.5"/><circle cx="270.336" cy="1548.288000000001" r="6.144" fill="#cfa15f" opacity="0.5"/><circle cx="270.336" cy="1597.440000000001" r="6.144" fill="#cfa15f" opacity="0.5"/><circle cx="270.336" cy="1646.592000000001" r="6.144" fill="#cfa15f" opacity="0.5"/><circle cx="270.336" cy="1695.744000000001" r="6.144" fill="#cfa15f" opacity="0.5"/><circle cx="270.336" cy="1744.896000000001" r="6.144" fill="#cfa15f" opacity="0.5"/><circle cx="270.336" cy="1794.0480000000011" r="6.144" fill="#cfa15f" opacity="0.5"/><circle cx="270.336" cy="1843.2000000000012" r="6.144" fill="#cfa15f" opacity="0.5"/><circle cx="270.336" cy="1892.3520000000012" r="6.144" fill="#cfa15f" opacity="0.5"/><circle cx="270.336" cy="1941.5040000000013" r="6.144" fill="#cfa15f" opacity="0.5"/><circle cx="270.336" cy="1990.6560000000013" r="6.144" fill="#cfa15f" opacity="0.5"/><circle cx="1265.664" cy="319.488" r="6.144" fill="#cfa15f" opacity="0.5"/><circle cx="1265.664" cy="368.64" r="6.144" fill="#cfa15f" opacity="0.5"/><circle cx="1265.664" cy="417.792" r="6.144" fill="#cfa15f" opacity="0.5"/><circle cx="1265.664" cy="466.94399999999996" r="6.144" fill="#cfa15f" opacity="0.5"/><circle cx="1265.664" cy="516.096" r="6.144" fill="#cfa15f" opacity="0.5"/><circle cx="1265.664" cy="565.248" r="6.144" fill="#cfa15f" opacity="0.5"/><circle cx="1265.664" cy="614.4000000000001" r="6.144" fill="#cfa15f" opacity="0.5"/><circle cx="1265.664" cy="663.5520000000001" r="6.144" fill="#cfa15f" opacity="0.5"/><circle cx="1265.664" cy="712.7040000000002" r="6.144" fill="#cfa15f" opacity="0.5"/><circle cx="1265.664" cy="761.8560000000002" r="6.144" fill="#cfa15f" opacity="0.5"/><circle cx="1265.664" cy="811.0080000000003" r="6.144" fill="#cfa15f" opacity="0.5"/><circle cx="1265.664" cy="860.1600000000003" r="6.144" fill="#cfa15f" opacity="0.5"/><circle cx="1265.664" cy="909.3120000000004" r="6.144" fill="#cfa15f" opacity="0.5"/><circle cx="1265.664" cy="958.4640000000004" r="6.144" fill="#cfa15f" opacity="0.5"/><circle cx="1265.664" cy="1007.6160000000004" r="6.144" fill="#cfa15f" opacity="0.5"/><circle cx="1265.664" cy="1056.7680000000005" r="6.144" fill="#cfa15f" opacity="0.5"/><circle cx="1265.664" cy="1105.9200000000005" r="6.144" fill="#cfa15f" opacity="0.5"/><circle cx="1265.664" cy="1155.0720000000006" r="6.144" fill="#cfa15f" opacity="0.5"/><circle cx="1265.664" cy="1204.2240000000006" r="6.144" fill="#cfa15f" opacity="0.5"/><circle cx="1265.664" cy="1253.3760000000007" r="6.144" fill="#cfa15f" opacity="0.5"/><circle cx="1265.664" cy="1302.5280000000007" r="6.144" fill="#cfa15f" opacity="0.5"/><circle cx="1265.664" cy="1351.6800000000007" r="6.144" fill="#cfa15f" opacity="0.5"/><circle cx="1265.664" cy="1400.8320000000008" r="6.144" fill="#cfa15f" opacity="0.5"/><circle cx="1265.664" cy="1449.9840000000008" r="6.144" fill="#cfa15f" opacity="0.5"/><circle cx="1265.664" cy="1499.1360000000009" r="6.144" fill="#cfa15f" opacity="0.5"/><circle cx="1265.664" cy="1548.288000000001" r="6.144" fill="#cfa15f" opacity="0.5"/><circle cx="1265.664" cy="1597.440000000001" r="6.144" fill="#cfa15f" opacity="0.5"/><circle cx="1265.664" cy="1646.592000000001" r="6.144" fill="#cfa15f" opacity="0.5"/><circle cx="1265.664" cy="1695.744000000001" r="6.144" fill="#cfa15f" opacity="0.5"/><circle cx="1265.664" cy="1744.896000000001" r="6.144" fill="#cfa15f" opacity="0.5"/><circle cx="1265.664" cy="1794.0480000000011" r="6.144" fill="#cfa15f" opacity="0.5"/><circle cx="1265.664" cy="1843.2000000000012" r="6.144" fill="#cfa15f" opacity="0.5"/><circle cx="1265.664" cy="1892.3520000000012" r="6.144" fill="#cfa15f" opacity="0.5"/><circle cx="1265.664" cy="1941.5040000000013" r="6.144" fill="#cfa15f" opacity="0.5"/><circle cx="1265.664" cy="1990.6560000000013" r="6.144" fill="#cfa15f" opacity="0.5"/>
    <path d="M280.336 280.336 C335.632 289.552 354.064 335.632 307.98400000000004 381.712 C289.552 400.144 271.12 372.496 295.08160000000004 344.848" stroke="#d99a8b" stroke-width="7.68" stroke-linecap="round" fill="none" opacity="0.72"/>
  <path d="M280.336 280.336 C289.552 335.632 335.632 354.064 381.712 307.98400000000004 C400.144 289.552 372.496 271.12 344.848 295.08160000000004" stroke="#d99a8b" stroke-width="7.68" stroke-linecap="round" fill="none" opacity="0.72"/><path d="M1255.664 280.336 C1200.368 289.552 1181.936 335.632 1228.016 381.712 C1246.448 400.144 1264.8799999999999 372.496 1240.9184 344.848" stroke="#d99a8b" stroke-width="7.68" stroke-linecap="round" fill="none" opacity="0.72"/>
  <path d="M1255.664 280.336 C1246.448 335.632 1200.368 354.064 1154.288 307.98400000000004 C1135.856 289.552 1163.504 271.12 1191.152 295.08160000000004" stroke="#d99a8b" stroke-width="7.68" stroke-linecap="round" fill="none" opacity="0.72"/><path d="M280.336 2023.664 C335.632 2014.448 354.064 1968.368 307.98400000000004 1922.288 C289.552 1903.856 271.12 1931.504 295.08160000000004 1959.152" stroke="#d99a8b" stroke-width="7.68" stroke-linecap="round" fill="none" opacity="0.72"/>
  <path d="M280.336 2023.664 C289.552 1968.368 335.632 1949.936 381.712 1996.016 C400.144 2014.448 372.496 2032.8799999999999 344.848 2008.9184" stroke="#d99a8b" stroke-width="7.68" stroke-linecap="round" fill="none" opacity="0.72"/><path d="M1255.664 2023.664 C1200.368 2014.448 1181.936 1968.368 1228.016 1922.288 C1246.448 1903.856 1264.8799999999999 1931.504 1240.9184 1959.152" stroke="#d99a8b" stroke-width="7.68" stroke-linecap="round" fill="none" opacity="0.72"/>
  <path d="M1255.664 2023.664 C1246.448 1968.368 1200.368 1949.936 1154.288 1996.016 C1135.856 2014.448 1163.504 2032.8799999999999 1191.152 2008.9184" stroke="#d99a8b" stroke-width="7.68" stroke-linecap="round" fill="none" opacity="0.72"/>
    <mask id="tc344.06399999999996344.06399999999996"><rect x="306.27199999999993" y="306.27199999999993" width="75.584" height="75.584" fill="white"/><circle cx="359.27039999999994" cy="337.30559999999997" r="30.4128" fill="black"/></mask>
  <circle cx="344.06399999999996" cy="344.06399999999996" r="33.792" fill="#cfa15f" opacity="0.5" mask="url(#tc344.06399999999996344.06399999999996)"/><mask id="tc1191.93600000000011959.9360000000001"><rect x="1154.1440000000002" y="1922.1440000000002" width="75.584" height="75.584" fill="white"/><circle cx="1207.1424000000002" cy="1953.1776000000002" r="30.4128" fill="black"/></mask>
  <circle cx="1191.9360000000001" cy="1959.9360000000001" r="33.792" fill="#cfa15f" opacity="0.5" mask="url(#tc1191.93600000000011959.9360000000001)"/>
    <polygon points="768,208.896 786,258.048 768,307.2 750,258.048" fill="#cfa15f" opacity="0.55"/><polygon points="768,2095.104 786,2045.952 768,1996.8 750,2045.952" fill="#cfa15f" opacity="0.55"/>
    <path d="M18 11 C18.84 16.46 19.54 17.16 25 18 C19.54 18.84 18.84 19.54 18 25 C17.16 19.54 16.46 18.84 11 18 C16.46 17.16 17.16 16.46 18 11Z" fill="#d99a8b" opacity="0.52"/><path d="M155 99 C156.2 106.8 157.2 107.8 165 109 C157.2 110.2 156.2 111.2 155 119 C153.8 111.2 152.8 110.2 145 109 C152.8 107.8 153.8 106.8 155 99Z" fill="#cfa15f" opacity="0.52"/><path d="M292 187 C293.56 197.14 294.86 198.44 305 200 C294.86 201.56 293.56 202.86 292 213 C290.44 202.86 289.14 201.56 279 200 C289.14 198.44 290.44 197.14 292 187Z" fill="#d99a8b" opacity="0.52"/><path d="M429 275 C430.92 287.48 432.52 289.08 445 291 C432.52 292.92 430.92 294.52 429 307 C427.08 294.52 425.48 292.92 413 291 C425.48 289.08 427.08 287.48 429 275Z" fill="#cfa15f" opacity="0.52"/><path d="M566 375 C566.84 380.46 567.54 381.16 573 382 C567.54 382.84 566.84 383.54 566 389 C565.16 383.54 564.46 382.84 559 382 C564.46 381.16 565.16 380.46 566 375Z" fill="#d99a8b" opacity="0.52"/><path d="M703 463 C704.2 470.8 705.2 471.8 713 473 C705.2 474.2 704.2 475.2 703 483 C701.8 475.2 700.8 474.2 693 473 C700.8 471.8 701.8 470.8 703 463Z" fill="#cfa15f" opacity="0.52"/><path d="M840 551 C841.56 561.14 842.86 562.44 853 564 C842.86 565.56 841.56 566.86 840 577 C838.44 566.86 837.14 565.56 827 564 C837.14 562.44 838.44 561.14 840 551Z" fill="#d99a8b" opacity="0.52"/><path d="M977 639 C978.92 651.48 980.52 653.08 993 655 C980.52 656.92 978.92 658.52 977 671 C975.08 658.52 973.48 656.92 961 655 C973.48 653.08 975.08 651.48 977 639Z" fill="#cfa15f" opacity="0.52"/><path d="M1114 739 C1114.84 744.46 1115.54 745.16 1121 746 C1115.54 746.84 1114.84 747.54 1114 753 C1113.16 747.54 1112.46 746.84 1107 746 C1112.46 745.16 1113.16 744.46 1114 739Z" fill="#d99a8b" opacity="0.52"/><path d="M1251 827 C1252.2 834.8 1253.2 835.8 1261 837 C1253.2 838.2 1252.2 839.2 1251 847 C1249.8 839.2 1248.8 838.2 1241 837 C1248.8 835.8 1249.8 834.8 1251 827Z" fill="#cfa15f" opacity="0.52"/><path d="M1388 915 C1389.56 925.14 1390.86 926.44 1401 928 C1390.86 929.56 1389.56 930.86 1388 941 C1386.44 930.86 1385.14 929.56 1375 928 C1385.14 926.44 1386.44 925.14 1388 915Z" fill="#d99a8b" opacity="0.52"/><path d="M1525 1003 C1526.92 1015.48 1528.52 1017.08 1541 1019 C1528.52 1020.92 1526.92 1022.52 1525 1035 C1523.08 1022.52 1521.48 1020.92 1509 1019 C1521.48 1017.08 1523.08 1015.48 1525 1003Z" fill="#cfa15f" opacity="0.52"/><path d="M126 1103 C126.84 1108.46 127.54 1109.16 133 1110 C127.54 1110.84 126.84 1111.54 126 1117 C125.16 1111.54 124.46 1110.84 119 1110 C124.46 1109.16 125.16 1108.46 126 1103Z" fill="#d99a8b" opacity="0.52"/><path d="M263 1191 C264.2 1198.8 265.2 1199.8 273 1201 C265.2 1202.2 264.2 1203.2 263 1211 C261.8 1203.2 260.8 1202.2 253 1201 C260.8 1199.8 261.8 1198.8 263 1191Z" fill="#cfa15f" opacity="0.52"/><path d="M400 1279 C401.56 1289.14 402.86 1290.44 413 1292 C402.86 1293.56 401.56 1294.86 400 1305 C398.44 1294.86 397.14 1293.56 387 1292 C397.14 1290.44 398.44 1289.14 400 1279Z" fill="#d99a8b" opacity="0.52"/><path d="M537 1367 C538.92 1379.48 540.52 1381.08 553 1383 C540.52 1384.92 538.92 1386.52 537 1399 C535.08 1386.52 533.48 1384.92 521 1383 C533.48 1381.08 535.08 1379.48 537 1367Z" fill="#cfa15f" opacity="0.52"/><path d="M674 1467 C674.84 1472.46 675.54 1473.16 681 1474 C675.54 1474.84 674.84 1475.54 674 1481 C673.16 1475.54 672.46 1474.84 667 1474 C672.46 1473.16 673.16 1472.46 674 1467Z" fill="#d99a8b" opacity="0.52"/><path d="M811 1555 C812.2 1562.8 813.2 1563.8 821 1565 C813.2 1566.2 812.2 1567.2 811 1575 C809.8 1567.2 808.8 1566.2 801 1565 C808.8 1563.8 809.8 1562.8 811 1555Z" fill="#cfa15f" opacity="0.52"/><path d="M948 1643 C949.56 1653.14 950.86 1654.44 961 1656 C950.86 1657.56 949.56 1658.86 948 1669 C946.44 1658.86 945.14 1657.56 935 1656 C945.14 1654.44 946.44 1653.14 948 1643Z" fill="#d99a8b" opacity="0.52"/><path d="M1085 1731 C1086.92 1743.48 1088.52 1745.08 1101 1747 C1088.52 1748.92 1086.92 1750.52 1085 1763 C1083.08 1750.52 1081.48 1748.92 1069 1747 C1081.48 1745.08 1083.08 1743.48 1085 1731Z" fill="#cfa15f" opacity="0.52"/><path d="M1222 1831 C1222.84 1836.46 1223.54 1837.16 1229 1838 C1223.54 1838.84 1222.84 1839.54 1222 1845 C1221.16 1839.54 1220.46 1838.84 1215 1838 C1220.46 1837.16 1221.16 1836.46 1222 1831Z" fill="#d99a8b" opacity="0.52"/><path d="M1359 1919 C1360.2 1926.8 1361.2 1927.8 1369 1929 C1361.2 1930.2 1360.2 1931.2 1359 1939 C1357.8 1931.2 1356.8 1930.2 1349 1929 C1356.8 1927.8 1357.8 1926.8 1359 1919Z" fill="#cfa15f" opacity="0.52"/><path d="M1496 2007 C1497.56 2017.14 1498.86 2018.44 1509 2020 C1498.86 2021.56 1497.56 2022.86 1496 2033 C1494.44 2022.86 1493.14 2021.56 1483 2020 C1493.14 2018.44 1494.44 2017.14 1496 2007Z" fill="#d99a8b" opacity="0.52"/><path d="M97 2095 C98.92 2107.48 100.52 2109.08 113 2111 C100.52 2112.92 98.92 2114.52 97 2127 C95.08 2114.52 93.48 2112.92 81 2111 C93.48 2109.08 95.08 2107.48 97 2095Z" fill="#cfa15f" opacity="0.52"/><path d="M234 2195 C234.84 2200.46 235.54 2201.16 241 2202 C235.54 2202.84 234.84 2203.54 234 2209 C233.16 2203.54 232.46 2202.84 227 2202 C232.46 2201.16 233.16 2200.46 234 2195Z" fill="#d99a8b" opacity="0.52"/><path d="M371 2283 C372.2 2290.8 373.2 2291.8 381 2293 C373.2 2294.2 372.2 2295.2 371 2303 C369.8 2295.2 368.8 2294.2 361 2293 C368.8 2291.8 369.8 2290.8 371 2283Z" fill="#cfa15f" opacity="0.52"/><path d="M508 67 C509.56 77.14 510.86 78.44 521 80 C510.86 81.56 509.56 82.86 508 93 C506.44 82.86 505.14 81.56 495 80 C505.14 78.44 506.44 77.14 508 67Z" fill="#d99a8b" opacity="0.52"/><path d="M645 155 C646.92 167.48 648.52 169.08 661 171 C648.52 172.92 646.92 174.52 645 187 C643.08 174.52 641.48 172.92 629 171 C641.48 169.08 643.08 167.48 645 155Z" fill="#cfa15f" opacity="0.52"/>
    <circle cx="768" cy="1012" r="276.48" fill="#f5c6ce" stroke="url(#goldRose)" stroke-width="21.504"/>
    <circle cx="768" cy="1012" r="215.04000000000002" fill="none" stroke="#cfa15f" stroke-width="6.144" stroke-dasharray="12 10" opacity="0.55"/>
    <polygon points="768,843.04 790.3364665802856,958.0749994463812 887.4727617492791,892.527238250721 821.9250005536188,989.6635334197144 936.96,1012 821.9250005536188,1034.3364665802856 887.4727617492791,1131.472761749279 790.3364665802856,1065.9250005536187 768,1180.96 745.6635334197144,1065.9250005536187 648.527238250721,1131.472761749279 714.0749994463812,1034.3364665802856 599.04,1012 714.0749994463812,989.6635334197144 648.5272382507209,892.527238250721 745.6635334197144,958.0749994463812" fill="#c56f82"/>
    <path d="M568 1112 C688 1172 848 1172 968 1112" stroke="#d99a8b" stroke-width="8" stroke-linecap="round" fill="none" opacity="0.45"/>
    <path d="M488 1417 C658 1517 878 1517 1048 1417" stroke="#d99a8b" stroke-width="18" stroke-linecap="round"/>
    <path d="M588 1552 H948" stroke="#cfa15f" stroke-width="14" stroke-linecap="round"/>
    <path d="M508 1492 H1028" stroke="#cfa15f" stroke-width="5" stroke-linecap="round" opacity="0.4"/>
    <path d="M418 588 C423.28 622.32 427.68 626.72 462 632 C427.68 637.28 423.28 641.68 418 676 C412.72 641.68 408.32 637.28 374 632 C408.32 626.72 412.72 622.32 418 588Z" fill="url(#goldRose)" opacity="1"/>
    <path d="M1118 1628 C1123.28 1662.32 1127.68 1666.72 1162 1672 C1127.68 1677.28 1123.28 1681.68 1118 1716 C1112.72 1681.68 1108.32 1677.28 1074 1672 C1108.32 1666.72 1112.72 1662.32 1118 1628Z" fill="#d99a8b" opacity="0.84"/>
    <path d="M418 1652 C420.4 1667.6 422.4 1669.6 438 1672 C422.4 1674.4 420.4 1676.4 418 1692 C415.6 1676.4 413.6 1674.4 398 1672 C413.6 1669.6 415.6 1667.6 418 1652Z" fill="#cfa15f" opacity="0.55"/>
    <path d="M1118 612 C1120.4 627.6 1122.4 629.6 1138 632 C1122.4 634.4 1120.4 636.4 1118 652 C1115.6 636.4 1113.6 634.4 1098 632 C1113.6 629.6 1115.6 627.6 1118 612Z" fill="#d99a8b" opacity="0.55"/>
    <path d="M768 1316 C769.92 1328.48 771.52 1330.08 784 1332 C771.52 1333.92 769.92 1335.52 768 1348 C766.08 1335.52 764.48 1333.92 752 1332 C764.48 1330.08 766.08 1328.48 768 1316Z" fill="#cfa15f" opacity="0.45"/>
</svg>