<?xml version="1.0" encoding="UTF-8"?>
<svg xmlns="http://www.w3.org/2000/svg" width="1536" height="2304" viewBox="0 0 1536 2304" fill="none">
  <defs>
    <linearGradient id="goldRose" x1="0%" x2="100%" y1="0%" y2="100%">
      <stop offset="0%" stop-color="#f3d89f"/>
      <stop offset="50%" stop-color="#d99a8b"/>
      <stop offset="100%" stop-color="#cfa15f"/>
    </linearGradient>
    <linearGradient id="creamBlush" x1="0%" x2="100%" y1="0%" y2="100%">
      <stop offset="0%" stop-color="#fffaf1"/>
      <stop offset="100%" stop-color="#f5c6ce"/>
    </linearGradient>
    <linearGradient id="roseDeep" x1="0%" x2="0%" y1="0%" y2="100%">
      <stop offset="0%" stop-color="#c56f82"/>
      <stop offset="100%" stop-color="#a8586c"/>
    </linearGradient>
    <linearGradient id="goldShine" x1="0%" x2="100%" y1="0%" y2="0%">
      <stop offset="0%" stop-color="#cfa15f" stop-opacity="0.4"/>
      <stop offset="50%" stop-color="#f3d89f" stop-opacity="0.9"/>
      <stop offset="100%" stop-color="#cfa15f" stop-opacity="0.4"/>
    </linearGradient>
    <radialGradient id="softGlow" cx="50%" cy="48%" r="55%">
      <stop offset="0%" stop-color="#ffffff" stop-opacity="0.95"/>
      <stop offset="45%" stop-color="#f5c6ce" stop-opacity="0.5"/>
      <stop offset="100%" stop-color="#d99a8b" stop-opacity="0"/>
    </radialGradient>
    <radialGradient id="warmGlow" cx="50%" cy="50%" r="50%">
      <stop offset="0%" stop-color="#f3d89f" stop-opacity="0.6"/>
      <stop offset="60%" stop-color="#cfa15f" stop-opacity="0.2"/>
      <stop offset="100%" stop-color="#cfa15f" stop-opacity="0"/>
    </radialGradient>
    <filter id="gentleShadow" x="-20%" y="-20%" width="140%" height="140%" color-interpolation-filters="sRGB">
      <feDropShadow dx="0" dy="22" stdDeviation="28" flood-color="#11172d" flood-opacity="0.18"/>
    </filter>
    <filter id="innerGlow" x="-30%" y="-30%" width="160%" height="160%" color-interpolation-filters="sRGB">
      <feGaussianBlur stdDeviation="8" result="blur"/>
      <feComposite in="SourceGraphic" in2="blur" operator="over"/>
    </filter>
  </defs>
  <rect x="122.88" y="122.88" width="1290.24" height="2058.24" rx="122.88" fill="#11172d" stroke="#cfa15f" stroke-width="33.792" filter="url(#gentleShadow)"/>
  <rect x="178.176" y="178.176" width="1179.6480000000001" height="1947.6480000000001" rx="76.1856" fill="none" stroke="#cfa15f" stroke-width="15.36" opacity="0.78"/>
  <rect x="233.47199999999998" y="233.47199999999998" width="1069.056" height="1837.056" rx="54.0672" fill="none" stroke="#d99a8b" stroke-width="9.216000000000001" opacity="0.72"/>
    <rect x="86.01599999999999" y="86.01599999999999" width="1363.968" height="2131.968" rx="138.24" fill="none" stroke="#cfa15f" stroke-width="6.144" opacity="0.35"/>
    <path d="M248 322.56000000000006 C456 1152 248 1981.44" stroke="#cfa15f" stroke-width="7" opacity="0.3" fill="none"/><path d="M215.04000000000002 632 C768 432 1320.96 632" stroke="#d99a8b" stroke-width="5" opacity="0.2" fill="none"/><path d="M378 322.56000000000006 C534 1152 378 1981.44" stroke="#cfa15f" stroke-width="7" opacity="0.3" fill="none"/><path d="M215.04000000000002 762 C768 612 1320.96 762" stroke="#d99a8b" stroke-width="5" opacity="0.2" fill="none"/><path d="M508 322.56000000000006 C612 1152 508 1981.44" stroke="#cfa15f" stroke-width="7" opacity="0.3" fill="none"/><path d="M215.04000000000002 892 C768 792 1320.96 892" stroke="#d99a8b" stroke-width="5" opacity="0.2" fill="none"/><path d="M638 322.56000000000006 C690 1152 638 1981.44" stroke="#cfa15f" stroke-width="7" opacity="0.3" fill="none"/><path d="M215.04000000000002 1022 C768 972 1320.96 1022" stroke="#d99a8b" stroke-width="5" opacity="0.2" fill="none"/><path d="M768 322.56000000000006 C768 1152 768 1981.44" stroke="#cfa15f" stroke-width="7" opacity="0.3" fill="none"/><path d="M215.04000000000002 1152 C768 1152 1320.96 1152" stroke="#d99a8b" stroke-width="5" opacity="0.2" fill="none"/><path d="M898 322.56000000000006 C846 1152 898 1981.44" stroke="#cfa15f" stroke-width="7" opacity="0.3" fill="none"/><path d="M215.04000000000002 1282 C768 1332 1320.96 1282" stroke="#d99a8b" stroke-width="5" opacity="0.2" fill="none"/><path d="M1028 322.56000000000006 C924 1152 1028 1981.44" stroke="#cfa15f" stroke-width="7" opacity="0.3" fill="none"/><path d="M215.04000000000002 1412 C768 1512 1320.96 1412" stroke="#d99a8b" stroke-width="5" opacity="0.2" fill="none"/><path d="M1158 322.56000000000006 C1002 1152 1158 1981.44" stroke="#cfa15f" stroke-width="7" opacity="0.3" fill="none"/><path d="M215.04000000000002 1542 C768 1692 1320.96 1542" stroke="#d99a8b" stroke-width="5" opacity="0.2" fill="none"/><path d="M1288 322.56000000000006 C1080 1152 1288 1981.44" stroke="#cfa15f" stroke-width="7" opacity="0.3" fill="none"/><path d="M215.04000000000002 1672 C768 1872 1320.96 1672" stroke="#d99a8b" stroke-width="5" opacity="0.2" fill="none"/>
    <circle cx="308.736" cy="270.336" r="4.6080000000000005" fill="#cfa15f" opacity="0.4"/><circle cx="347.13599999999997" cy="270.336" r="4.6080000000000005" fill="#cfa15f" opacity="0.4"/><circle cx="385.53599999999994" cy="270.336" r="4.6080000000000005" fill="#cfa15f" opacity="0.4"/><circle cx="423.9359999999999" cy="270.336" r="4.6080000000000005" fill="#cfa15f" opacity="0.4"/><circle cx="462.3359999999999" cy="270.336" r="4.6080000000000005" fill="#cfa15f" opacity="0.4"/><circle cx="500.7359999999999" cy="270.336" r="4.6080000000000005" fill="#cfa15f" opacity="0.4"/><circle cx="539.1359999999999" cy="270.336" r="4.6080000000000005" fill="#cfa15f" opacity="0.4"/><circle cx="577.5359999999998" cy="270.336" r="4.6080000000000005" fill="#cfa15f" opacity="0.4"/><circle cx="615.9359999999998" cy="270.336" r="4.6080000000000005" fill="#cfa15f" opacity="0.4"/><circle cx="654.3359999999998" cy="270.336" r="4.6080000000000005" fill="#cfa15f" opacity="0.4"/><circle cx="692.7359999999998" cy="270.336" r="4.6080000000000005" fill="#cfa15f" opacity="0.4"/><circle cx="731.1359999999997" cy="270.336" r="4.6080000000000005" fill="#cfa15f" opacity="0.4"/><circle cx="769.5359999999997" cy="270.336" r="4.6080000000000005" fill="#cfa15f" opacity="0.4"/><circle cx="807.9359999999997" cy="270.336" r="4.6080000000000005" fill="#cfa15f" opacity="0.4"/><circle cx="846.3359999999997" cy="270.336" r="4.6080000000000005" fill="#cfa15f" opacity="0.4"/><circle cx="884.7359999999996" cy="270.336" r="4.6080000000000005" fill="#cfa15f" opacity="0.4"/><circle cx="923.1359999999996" cy="270.336" r="4.6080000000000005" fill="#cfa15f" opacity="0.4"/><circle cx="961.5359999999996" cy="270.336" r="4.6080000000000005" fill="#cfa15f" opacity="0.4"/><circle cx="999.9359999999996" cy="270.336" r="4.6080000000000005" fill="#cfa15f" opacity="0.4"/><circle cx="1038.3359999999996" cy="270.336" r="4.6080000000000005" fill="#cfa15f" opacity="0.4"/><circle cx="1076.7359999999996" cy="270.336" r="4.6080000000000005" fill="#cfa15f" opacity="0.4"/><circle cx="1115.1359999999997" cy="270.336" r="4.6080000000000005" fill="#cfa15f" opacity="0.4"/><circle cx="1153.5359999999998" cy="270.336" r="4.6080000000000005" fill="#cfa15f" opacity="0.4"/><circle cx="1191.936" cy="270.336" r="4.6080000000000005" fill="#cfa15f" opacity="0.4"/><circle cx="1230.336" cy="270.336" r="4.6080000000000005" fill="#cfa15f" opacity="0.4"/><circle cx="308.736" cy="2033.664" r="4.6080000000000005" fill="#cfa15f" opacity="0.4"/><circle cx="347.13599999999997" cy="2033.664" r="4.6080000000000005" fill="#cfa15f" opacity="0.4"/><circle cx="385.53599999999994" cy="2033.664" r="4.6080000000000005" fill="#cfa15f" opacity="0.4"/><circle cx="423.9359999999999" cy="2033.664" r="4.6080000000000005" fill="#cfa15f" opacity="0.4"/><circle cx="462.3359999999999" cy="2033.664" r="4.6080000000000005" fill="#cfa15f" opacity="0.4"/><circle cx="500.7359999999999" cy="2033.664" r="4.6080000000000005" fill="#cfa15f" opacity="0.4"/><circle cx="539.1359999999999" cy="2033.664" r="4.6080000000000005" fill="#cfa15f" opacity="0.4"/><circle cx="577.5359999999998" cy="2033.664" r="4.6080000000000005" fill="#cfa15f" opacity="0.4"/><circle cx="615.9359999999998" cy="2033.664" r="4.6080000000000005" fill="#cfa15f" opacity="0.4"/><circle cx="654.3359999999998" cy="2033.664" r="4.6080000000000005" fill="#cfa15f" opacity="0.4"/><circle cx="692.7359999999998" cy="2033.664" r="4.6080000000000005" fill="#cfa15f" opacity="0.4"/><circle cx="731.1359999999997" cy="2033.664" r="4.6080000000000005" fill="#cfa15f" opacity="0.4"/><circle cx="769.5359999999997" cy="2033.664" r="4.6080000000000005" fill="#cfa15f" opacity="0.4"/><circle cx="807.9359999999997" cy="2033.664" r="4.6080000000000005" fill="#cfa15f" opacity="0.4"/><circle cx="846.3359999999997" cy="2033.664" r="4.6080000000000005" fill="#cfa15f" opacity="0.4"/><circle cx="884.7359999999996" cy="2033.664" r="4.6080000000000005" fill="#cfa15f" opacity="0.4"/><circle cx="923.1359999999996" cy="2033.664" r="4.6080000000000005" fill="#cfa15f" opacity="0.4"/><circle cx="961.5359999999996" cy="2033.664" r="4.6080000000000005" fill="#cfa15f" opacity="0.4"/><circle cx="999.9359999999996" cy="2033.664" r="4.6080000000000005" fill="#cfa15f" opacity="0.4"/><circle cx="1038.3359999999996" cy="2033.664" r="4.6080000000000005" fill="#cfa15f" opacity="0.4"/><circle cx="1076.7359999999996" cy="2033.664" r="4.6080000000000005" fill="#cfa15f" opacity="0.4"/><circle cx="1115.1359999999997" cy="2033.664" r="4.6080000000000005" fill="#cfa15f" opacity="0.4"/><circle cx="1153.5359999999998" cy="2033.664" r="4.6080000000000005" fill="#cfa15f" opacity="0.4"/><circle cx="1191.936" cy="2033.664" r="4.6080000000000005" fill="#cfa15f" opacity="0.4"/><circle cx="1230.336" cy="2033.664" r="4.6080000000000005" fill="#cfa15f" opacity="0.4"/><circle cx="270.336" cy="308.736" r="4.6080000000000005" fill="#cfa15f" opacity="0.4"/><circle cx="270.336" cy="347.13599999999997" r="4.6080000000000005" fill="#cfa15f" opacity="0.4"/><circle cx="270.336" cy="385.53599999999994" r="4.6080000000000005" fill="#cfa15f" opacity="0.4"/><circle cx="270.336" cy="423.9359999999999" r="4.6080000000000005" fill="#cfa15f" opacity="0.4"/><circle cx="270.336" cy="462.3359999999999" r="4.6080000000000005" fill="#cfa15f" opacity="0.4"/><circle cx="270.336" cy="500.7359999999999" r="4.6080000000000005" fill="#cfa15f" opacity="0.4"/><circle cx="270.336" cy="539.1359999999999" r="4.6080000000000005" fill="#cfa15f" opacity="0.4"/><circle cx="270.336" cy="577.5359999999998" r="4.6080000000000005" fill="#cfa15f" opacity="0.4"/><circle cx="270.336" cy="615.9359999999998" r="4.6080000000000005" fill="#cfa15f" opacity="0.4"/><circle cx="270.336" cy="654.3359999999998" r="4.6080000000000005" fill="#cfa15f" opacity="0.4"/><circle cx="270.336" cy="692.7359999999998" r="4.6080000000000005" fill="#cfa15f" opacity="0.4"/><circle cx="270.336" cy="731.1359999999997" r="4.6080000000000005" fill="#cfa15f" opacity="0.4"/><circle cx="270.336" cy="769.5359999999997" r="4.6080000000000005" fill="#cfa15f" opacity="0.4"/><circle cx="270.336" cy="807.9359999999997" r="4.6080000000000005" fill="#cfa15f" opacity="0.4"/><circle cx="270.336" cy="846.3359999999997" r="4.6080000000000005" fill="#cfa15f" opacity="0.4"/><circle cx="270.336" cy="884.7359999999996" r="4.6080000000000005" fill="#cfa15f" opacity="0.4"/><circle cx="270.336" cy="923.1359999999996" r="4.6080000000000005" fill="#cfa15f" opacity="0.4"/><circle cx="270.336" cy="961.5359999999996" r="4.6080000000000005" fill="#cfa15f" opacity="0.4"/><circle cx="270.336" cy="999.9359999999996" r="4.6080000000000005" fill="#cfa15f" opacity="0.4"/><circle cx="270.336" cy="1038.3359999999996" r="4.6080000000000005" fill="#cfa15f" opacity="0.4"/><circle cx="270.336" cy="1076.7359999999996" r="4.6080000000000005" fill="#cfa15f" opacity="0.4"/><circle cx="270.336" cy="1115.1359999999997" r="4.6080000000000005" fill="#cfa15f" opacity="0.4"/><circle cx="270.336" cy="1153.5359999999998" r="4.6080000000000005" fill="#cfa15f" opacity="0.4"/><circle cx="270.336" cy="1191.936" r="4.6080000000000005" fill="#cfa15f" opacity="0.4"/><circle cx="270.336" cy="1230.336" r="4.6080000000000005" fill="#cfa15f" opacity="0.4"/><circle cx="270.336" cy="1268.736" r="4.6080000000000005" fill="#cfa15f" opacity="0.4"/><circle cx="270.336" cy="1307.1360000000002" r="4.6080000000000005" fill="#cfa15f" opacity="0.4"/><circle cx="270.336" cy="1345.5360000000003" r="4.6080000000000005" fill="#cfa15f" opacity="0.4"/><circle cx="270.336" cy="1383.9360000000004" r="4.6080000000000005" fill="#cfa15f" opacity="0.4"/><circle cx="270.336" cy="1422.3360000000005" r="4.6080000000000005" fill="#cfa15f" opacity="0.4"/><circle cx="270.336" cy="1460.7360000000006" r="4.6080000000000005" fill="#cfa15f" opacity="0.4"/><circle cx="270.336" cy="1499.1360000000006" r="4.6080000000000005" fill="#cfa15f" opacity="0.4"/><circle cx="270.336" cy="1537.5360000000007" r="4.6080000000000005" fill="#cfa15f" opacity="0.4"/><circle cx="270.336" cy="1575.9360000000008" r="4.6080000000000005" fill="#cfa15f" opacity="0.4"/><circle cx="270.336" cy="1614.336000000001" r="4.6080000000000005" fill="#cfa15f" opacity="0.4"/><circle cx="270.336" cy="1652.736000000001" r="4.6080000000000005" fill="#cfa15f" opacity="0.4"/><circle cx="270.336" cy="1691.136000000001" r="4.6080000000000005" fill="#cfa15f" opacity="0.4"/><circle cx="270.336" cy="1729.5360000000012" r="4.6080000000000005" fill="#cfa15f" opacity="0.4"/><circle cx="270.336" cy="1767.9360000000013" r="4.6080000000000005" fill="#cfa15f" opacity="0.4"/><circle cx="270.336" cy="1806.3360000000014" r="4.6080000000000005" fill="#cfa15f" opacity="0.4"/><circle cx="270.336" cy="1844.7360000000015" r="4.6080000000000005" fill="#cfa15f" opacity="0.4"/><circle cx="270.336" cy="1883.1360000000016" r="4.6080000000000005" fill="#cfa15f" opacity="0.4"/><circle cx="270.336" cy="1921.5360000000016" r="4.6080000000000005" fill="#cfa15f" opacity="0.4"/><circle cx="270.336" cy="1959.9360000000017" r="4.6080000000000005" fill="#cfa15f" opacity="0.4"/><circle cx="270.336" cy="1998.3360000000018" r="4.6080000000000005" fill="#cfa15f" opacity="0.4"/><circle cx="1265.664" cy="308.736" r="4.6080000000000005" fill="#cfa15f" opacity="0.4"/><circle cx="1265.664" cy="347.13599999999997" r="4.6080000000000005" fill="#cfa15f" opacity="0.4"/><circle cx="1265.664" cy="385.53599999999994" r="4.6080000000000005" fill="#cfa15f" opacity="0.4"/><circle cx="1265.664" cy="423.9359999999999" r="4.6080000000000005" fill="#cfa15f" opacity="0.4"/><circle cx="1265.664" cy="462.3359999999999" r="4.6080000000000005" fill="#cfa15f" opacity="0.4"/><circle cx="1265.664" cy="500.7359999999999" r="4.6080000000000005" fill="#cfa15f" opacity="0.4"/><circle cx="1265.664" cy="539.1359999999999" r="4.6080000000000005" fill="#cfa15f" opacity="0.4"/><circle cx="1265.664" cy="577.5359999999998" r="4.6080000000000005" fill="#cfa15f" opacity="0.4"/><circle cx="1265.664" cy="615.9359999999998" r="4.6080000000000005" fill="#cfa15f" opacity="0.4"/><circle cx="1265.664" cy="654.3359999999998" r="4.6080000000000005" fill="#cfa15f" opacity="0.4"/><circle cx="1265.664" cy="692.7359999999998" r="4.6080000000000005" fill="#cfa15f" opacity="0.4"/><circle cx="1265.664" cy="731.1359999999997" r="4.6080000000000005" fill="#cfa15f" opacity="0.4"/><circle cx="1265.664" cy="769.5359999999997" r="4.6080000000000005" fill="#cfa15f" opacity="0.4"/><circle cx="1265.664" cy="807.9359999999997" r="4.6080000000000005" fill="#cfa15f" opacity="0.4"/><circle cx="1265.664" cy="846.3359999999997" r="4.6080000000000005" fill="#cfa15f" opacity="0.4"/><circle cx="1265.664" cy="884.7359999999996" r="4.6080000000000005" fill="#cfa15f" opacity="0.4"/><circle cx="1265.664" cy="923.1359999999996" r="4.6080000000000005" fill="#cfa15f" opacity="0.4"/><circle cx="1265.664" cy="961.5359999999996" r="4.6080000000000005" fill="#cfa15f" opacity="0.4"/><circle cx="1265.664" cy="999.9359999999996" r="4.6080000000000005" fill="#cfa15f" opacity="0.4"/><circle cx="1265.664" cy="1038.3359999999996" r="4.6080000000000005" fill="#cfa15f" opacity="0.4"/><circle cx="1265.664" cy="1076.7359999999996" r="4.6080000000000005" fill="#cfa15f" opacity="0.4"/><circle cx="1265.664" cy="1115.1359999999997" r="4.6080000000000005" fill="#cfa15f" opacity="0.4"/><circle cx="1265.664" cy="1153.5359999999998" r="4.6080000000000005" fill="#cfa15f" opacity="0.4"/><circle cx="1265.664" cy="1191.936" r="4.6080000000000005" fill="#cfa15f" opacity="0.4"/><circle cx="1265.664" cy="1230.336" r="4.6080000000000005" fill="#cfa15f" opacity="0.4"/><circle cx="1265.664" cy="1268.736" r="4.6080000000000005" fill="#cfa15f" opacity="0.4"/><circle cx="1265.664" cy="1307.1360000000002" r="4.6080000000000005" fill="#cfa15f" opacity="0.4"/><circle cx="1265.664" cy="1345.5360000000003" r="4.6080000000000005" fill="#cfa15f" opacity="0.4"/><circle cx="1265.664" cy="1383.9360000000004" r="4.6080000000000005" fill="#cfa15f" opacity="0.4"/><circle cx="1265.664" cy="1422.3360000000005" r="4.6080000000000005" fill="#cfa15f" opacity="0.4"/><circle cx="1265.664" cy="1460.7360000000006" r="4.6080000000000005" fill="#cfa15f" opacity="0.4"/><circle cx="1265.664" cy="1499.1360000000006" r="4.6080000000000005" fill="#cfa15f" opacity="0.4"/><circle cx="1265.664" cy="1537.5360000000007" r="4.6080000000000005" fill="#cfa15f" opacity="0.4"/><circle cx="1265.664" cy="1575.9360000000008" r="4.6080000000000005" fill="#cfa15f" opacity="0.4"/><circle cx="1265.664" cy="1614.336000000001" r="4.6080000000000005" fill="#cfa15f" opacity="0.4"/><circle cx="1265.664" cy="1652.736000000001" r="4.6080000000000005" fill="#cfa15f" opacity="0.4"/><circle cx="1265.664" cy="1691.136000000001" r="4.6080000000000005" fill="#cfa15f" opacity="0.4"/><circle cx="1265.664" cy="1729.5360000000012" r="4.6080000000000005" fill="#cfa15f" opacity="0.4"/><circle cx="1265.664" cy="1767.9360000000013" r="4.6080000000000005" fill="#cfa15f" opacity="0.4"/><circle cx="1265.664" cy="1806.3360000000014" r="4.6080000000000005" fill="#cfa15f" opacity="0.4"/><circle cx="1265.664" cy="1844.7360000000015" r="4.6080000000000005" fill="#cfa15f" opacity="0.4"/><circle cx="1265.664" cy="1883.1360000000016" r="4.6080000000000005" fill="#cfa15f" opacity="0.4"/><circle cx="1265.664" cy="1921.5360000000016" r="4.6080000000000005" fill="#cfa15f" opacity="0.4"/><circle cx="1265.664" cy="1959.9360000000017" r="4.6080000000000005" fill="#cfa15f" opacity="0.4"/><circle cx="1265.664" cy="1998.3360000000018" r="4.6080000000000005" fill="#cfa15f" opacity="0.4"/>
    <path d="M1228.8 1138 C1230.48 1148.92 1231.8799999999999 1150.32 1242.8 1152 C1231.8799999999999 1153.68 1230.48 1155.08 1228.8 1166 C1227.12 1155.08 1225.72 1153.68 1214.8 1152 C1225.72 1150.32 1227.12 1148.92 1228.8 1138Z" fill="#cfa15f" opacity="0.55"/><path d="M1193.7236885812008 1319.3405256338333 C1194.8036885812007 1326.3605256338333 1195.7036885812008 1327.2605256338334 1202.7236885812008 1328.3405256338333 C1195.7036885812008 1329.4205256338332 1194.8036885812007 1330.3205256338333 1193.7236885812008 1337.3405256338333 C1192.6436885812009 1330.3205256338333 1191.7436885812008 1329.4205256338332 1184.7236885812008 1328.3405256338333 C1191.7436885812008 1327.2605256338334 1192.6436885812009 1326.3605256338333 1193.7236885812008 1319.3405256338333Z" fill="#fff7ea" opacity="0.55"/><path d="M1093.8348047707611 1468.834804770761 C1094.914804770761 1475.854804770761 1095.8148047707612 1476.754804770761 1102.8348047707611 1477.834804770761 C1095.8148047707612 1478.9148047707608 1094.914804770761 1479.814804770761 1093.8348047707611 1486.834804770761 C1092.7548047707612 1479.814804770761 1091.8548047707611 1478.9148047707608 1084.8348047707611 1477.834804770761 C1091.8548047707611 1476.754804770761 1092.7548047707612 1475.854804770761 1093.8348047707611 1468.834804770761Z" fill="#cfa15f" opacity="0.55"/><path d="M944.3405256338334 1563.7236885812008 C946.0205256338334 1574.6436885812009 947.4205256338334 1576.0436885812007 958.3405256338334 1577.7236885812008 C947.4205256338334 1579.4036885812009 946.0205256338334 1580.8036885812007 944.3405256338334 1591.7236885812008 C942.6605256338335 1580.8036885812007 941.2605256338334 1579.4036885812009 930.3405256338334 1577.7236885812008 C941.2605256338334 1576.0436885812007 942.6605256338335 1574.6436885812009 944.3405256338334 1563.7236885812008Z" fill="#fff7ea" opacity="0.55"/><path d="M768 1603.8 C769.08 1610.82 769.98 1611.72 777 1612.8 C769.98 1613.8799999999999 769.08 1614.78 768 1621.8 C766.92 1614.78 766.02 1613.8799999999999 759 1612.8 C766.02 1611.72 766.92 1610.82 768 1603.8Z" fill="#cfa15f" opacity="0.55"/><path d="M591.6594743661667 1568.7236885812008 C592.7394743661667 1575.7436885812008 593.6394743661667 1576.6436885812009 600.6594743661667 1577.7236885812008 C593.6394743661667 1578.8036885812007 592.7394743661667 1579.7036885812008 591.6594743661667 1586.7236885812008 C590.5794743661667 1579.7036885812008 589.6794743661667 1578.8036885812007 582.6594743661667 1577.7236885812008 C589.6794743661667 1576.6436885812009 590.5794743661667 1575.7436885812008 591.6594743661667 1568.7236885812008Z" fill="#fff7ea" opacity="0.55"/><path d="M442.165195229239 1463.8348047707611 C443.845195229239 1474.7548047707612 445.24519522923896 1476.154804770761 456.165195229239 1477.8348047707611 C445.24519522923896 1479.5148047707612 443.845195229239 1480.914804770761 442.165195229239 1491.8348047707611 C440.48519522923897 1480.914804770761 439.085195229239 1479.5148047707612 428.165195229239 1477.8348047707611 C439.085195229239 1476.154804770761 440.48519522923897 1474.7548047707612 442.165195229239 1463.8348047707611Z" fill="#cfa15f" opacity="0.55"/><path d="M342.27631141879914 1319.3405256338333 C343.3563114187991 1326.3605256338333 344.25631141879916 1327.2605256338334 351.27631141879914 1328.3405256338333 C344.25631141879916 1329.4205256338332 343.3563114187991 1330.3205256338333 342.27631141879914 1337.3405256338333 C341.19631141879916 1330.3205256338333 340.2963114187991 1329.4205256338332 333.27631141879914 1328.3405256338333 C340.2963114187991 1327.2605256338334 341.19631141879916 1326.3605256338333 342.27631141879914 1319.3405256338333Z" fill="#fff7ea" opacity="0.55"/><path d="M307.20000000000005 1143 C308.28000000000003 1150.02 309.18000000000006 1150.92 316.20000000000005 1152 C309.18000000000006 1153.08 308.28000000000003 1153.98 307.20000000000005 1161 C306.12000000000006 1153.98 305.22 1153.08 298.20000000000005 1152 C305.22 1150.92 306.12000000000006 1150.02 307.20000000000005 1143Z" fill="#cfa15f" opacity="0.55"/><path d="M342.2763114187991 961.6594743661667 C343.9563114187991 972.5794743661667 345.35631141879907 973.9794743661668 356.2763114187991 975.6594743661667 C345.35631141879907 977.3394743661667 343.9563114187991 978.7394743661667 342.2763114187991 989.6594743661667 C340.5963114187991 978.7394743661667 339.1963114187991 977.3394743661667 328.2763114187991 975.6594743661667 C339.1963114187991 973.9794743661668 340.5963114187991 972.5794743661667 342.2763114187991 961.6594743661667Z" fill="#fff7ea" opacity="0.55"/><path d="M442.16519522923886 817.165195229239 C443.24519522923885 824.185195229239 444.1451952292389 825.0851952292389 451.16519522923886 826.165195229239 C444.1451952292389 827.245195229239 443.24519522923885 828.145195229239 442.16519522923886 835.165195229239 C441.0851952292389 828.145195229239 440.18519522923884 827.245195229239 433.16519522923886 826.165195229239 C440.18519522923884 825.0851952292389 441.0851952292389 824.185195229239 442.16519522923886 817.165195229239Z" fill="#cfa15f" opacity="0.55"/><path d="M591.6594743661664 717.2763114187992 C592.7394743661664 724.2963114187992 593.6394743661664 725.1963114187992 600.6594743661664 726.2763114187992 C593.6394743661664 727.3563114187992 592.7394743661664 728.2563114187992 591.6594743661664 735.2763114187992 C590.5794743661663 728.2563114187992 589.6794743661663 727.3563114187992 582.6594743661664 726.2763114187992 C589.6794743661663 725.1963114187992 590.5794743661663 724.2963114187992 591.6594743661664 717.2763114187992Z" fill="#fff7ea" opacity="0.55"/><path d="M767.9999999999999 677.2 C769.6799999999998 688.12 771.0799999999999 689.5200000000001 781.9999999999999 691.2 C771.0799999999999 692.88 769.6799999999998 694.2800000000001 767.9999999999999 705.2 C766.3199999999999 694.2800000000001 764.9199999999998 692.88 753.9999999999999 691.2 C764.9199999999998 689.5200000000001 766.3199999999999 688.12 767.9999999999999 677.2Z" fill="#cfa15f" opacity="0.55"/><path d="M944.3405256338335 717.2763114187992 C945.4205256338336 724.2963114187992 946.3205256338335 725.1963114187992 953.3405256338335 726.2763114187992 C946.3205256338335 727.3563114187992 945.4205256338336 728.2563114187992 944.3405256338335 735.2763114187992 C943.2605256338335 728.2563114187992 942.3605256338335 727.3563114187992 935.3405256338335 726.2763114187992 C942.3605256338335 725.1963114187992 943.2605256338335 724.2963114187992 944.3405256338335 717.2763114187992Z" fill="#fff7ea" opacity="0.55"/><path d="M1093.834804770761 817.1651952292389 C1094.9148047707608 824.1851952292388 1095.814804770761 825.0851952292388 1102.834804770761 826.1651952292389 C1095.814804770761 827.2451952292389 1094.9148047707608 828.1451952292389 1093.834804770761 835.1651952292389 C1092.754804770761 828.1451952292389 1091.854804770761 827.2451952292389 1084.834804770761 826.1651952292389 C1091.854804770761 825.0851952292388 1092.754804770761 824.1851952292388 1093.834804770761 817.1651952292389Z" fill="#cfa15f" opacity="0.55"/><path d="M1193.7236885812008 961.6594743661664 C1195.4036885812009 972.5794743661663 1196.8036885812007 973.9794743661664 1207.7236885812008 975.6594743661664 C1196.8036885812007 977.3394743661663 1195.4036885812009 978.7394743661664 1193.7236885812008 989.6594743661664 C1192.0436885812007 978.7394743661664 1190.6436885812009 977.3394743661663 1179.7236885812008 975.6594743661664 C1190.6436885812009 973.9794743661664 1192.0436885812007 972.5794743661663 1193.7236885812008 961.6594743661664Z" fill="#fff7ea" opacity="0.55"/>
    <circle cx="768" cy="1152" r="399.36" fill="none" stroke="#cfa15f" stroke-width="4" stroke-dasharray="18 12" opacity="0.45"/>
    <circle cx="768" cy="1152" r="261.12" fill="none" stroke="#fff7ea" stroke-width="3" stroke-dasharray="8 14" opacity="0.35"/>
    <circle cx="768" cy="1152" r="337.92" fill="#292733" stroke="url(#goldRose)" stroke-width="22"/>
    <mask id="backMoon"><rect width="1536" height="2304" fill="white"/><circle cx="840" cy="1124" r="276.48" fill="black"/></mask>
    <circle cx="732" cy="1152" r="307.20000000000005" fill="#fff7ea" mask="url(#backMoon)"/>
    <polygon points="768,998.4 789.16086307606,1100.913157370256 876.6116015902537,1043.3883984097463 819.0868426297441,1130.83913692394 921.6,1152 819.0868426297441,1173.16086307606 876.6116015902537,1260.6116015902537 789.16086307606,1203.086842629744 768,1305.6 746.83913692394,1203.086842629744 659.3883984097463,1260.6116015902537 716.9131573702559,1173.16086307606 614.4,1152 716.9131573702559,1130.83913692394 659.3883984097463,1043.3883984097463 746.8391369239399,1100.913157370256" fill="url(#goldRose)" opacity="0.9"/>
    <polygon points="768,1059.84 776.7460131721044,1119.3594344780397 814.08,1072.1870987872262 791.8945523498559,1128.1054476501442 847.8129012127738,1105.92 800.6405655219602,1143.2539868278957 860.16,1152 800.6405655219602,1160.7460131721043 847.8129012127739,1198.08 791.8945523498559,1175.8945523498558 814.08,1231.8129012127738 776.7460131721044,1184.6405655219603 768,1244.16 759.2539868278956,1184.6405655219603 721.9200000000001,1231.8129012127738 744.1054476501442,1175.8945523498558 688.1870987872262,1198.08 735.3594344780398,1160.7460131721043 675.84,1152 735.3594344780398,1143.2539868278957 688.1870987872262,1105.92 744.1054476501441,1128.1054476501442 721.92,1072.1870987872262 759.2539868278956,1119.3594344780397" fill="#fff7ea" opacity="0.35"/>
    <polygon points="319.488,305.488 329.488,319.488 319.488,333.488 309.488,319.488" fill="#cfa15f" opacity="0.5"/><polygon points="1216.512,305.488 1226.512,319.488 1216.512,333.488 1206.512,319.488" fill="#cfa15f" opacity="0.5"/><polygon points="319.488,1970.512 329.488,1984.512 319.488,1998.512 309.488,1984.512" fill="#cfa15f" opacity="0.5"/><polygon points="1216.512,1970.512 1226.512,1984.512 1216.512,1998.512 1206.512,1984.512" fill="#cfa15f" opacity="0.5"/>
    <path d="M18 11 C18.84 16.46 19.54 17.16 25 18 C19.54 18.84 18.84 19.54 18 25 C17.16 19.54 16.46 18.84 11 18 C16.46 17.16 17.16 16.46 18 11Z" fill="#d99a8b" opacity="0.52"/><path d="M155 99 C156.2 106.8 157.2 107.8 165 109 C157.2 110.2 156.2 111.2 155 119 C153.8 111.2 152.8 110.2 145 109 C152.8 107.8 153.8 106.8 155 99Z" fill="#cfa15f" opacity="0.52"/><path d="M292 187 C293.56 197.14 294.86 198.44 305 200 C294.86 201.56 293.56 202.86 292 213 C290.44 202.86 289.14 201.56 279 200 C289.14 198.44 290.44 197.14 292 187Z" fill="#d99a8b" opacity="0.52"/><path d="M429 275 C430.92 287.48 432.52 289.08 445 291 C432.52 292.92 430.92 294.52 429 307 C427.08 294.52 425.48 292.92 413 291 C425.48 289.08 427.08 287.48 429 275Z" fill="#cfa15f" opacity="0.52"/><path d="M566 375 C566.84 380.46 567.54 381.16 573 382 C567.54 382.84 566.84 383.54 566 389 C565.16 383.54 564.46 382.84 559 382 C564.46 381.16 565.16 380.46 566 375Z" fill="#d99a8b" opacity="0.52"/><path d="M703 463 C704.2 470.8 705.2 471.8 713 473 C705.2 474.2 704.2 475.2 703 483 C701.8 475.2 700.8 474.2 693 473 C700.8 471.8 701.8 470.8 703 463Z" fill="#cfa15f" opacity="0.52"/><path d="M840 551 C841.56 561.14 842.86 562.44 853 564 C842.86 565.56 841.56 566.86 840 577 C838.44 566.86 837.14 565.56 827 564 C837.14 562.44 838.44 561.14 840 551Z" fill="#d99a8b" opacity="0.52"/><path d="M977 639 C978.92 651.48 980.52 653.08 993 655 C980.52 656.92 978.92 658.52 977 671 C975.08 658.52 973.48 656.92 961 655 C973.48 653.08 975.08 651.48 977 639Z" fill="#cfa15f" opacity="0.52"/><path d="M1114 739 C1114.84 744.46 1115.54 745.16 1121 746 C1115.54 746.84 1114.84 747.54 1114 753 C1113.16 747.54 1112.46 746.84 1107 746 C1112.46 745.16 1113.16 744.46 1114 739Z" fill="#d99a8b" opacity="0.52"/><path d="M1251 827 C1252.2 834.8 1253.2 835.8 1261 837 C1253.2 838.2 1252.2 839.2 1251 847 C1249.8 839.2 1248.8 838.2 1241 837 C1248.8 835.8 1249.8 834.8 1251 827Z" fill="#cfa15f" opacity="0.52"/><path d="M1388 915 C1389.56 925.14 1390.86 926.44 1401 928 C1390.86 929.56 1389.56 930.86 1388 941 C1386.44 930.86 1385.14 929.56 1375 928 C1385.14 926.44 1386.44 925.14 1388 915Z" fill="#d99a8b" opacity="0.52"/><path d="M1525 1003 C1526.92 1015.48 1528.52 1017.08 1541 1019 C1528.52 1020.92 1526.92 1022.52 1525 1035 C1523.08 1022.52 1521.48 1020.92 1509 1019 C1521.48 1017.08 1523.08 1015.48 1525 1003Z" fill="#cfa15f" opacity="0.52"/><path d="M126 1103 C126.84 1108.46 127.54 1109.16 133 1110 C127.54 1110.84 126.84 1111.54 126 1117 C125.16 1111.54 124.46 1110.84 119 1110 C124.46 1109.16 125.16 1108.46 126 1103Z" fill="#d99a8b" opacity="0.52"/><path d="M263 1191 C264.2 1198.8 265.2 1199.8 273 1201 C265.2 1202.2 264.2 1203.2 263 1211 C261.8 1203.2 260.8 1202.2 253 1201 C260.8 1199.8 261.8 1198.8 263 1191Z" fill="#cfa15f" opacity="0.52"/><path d="M400 1279 C401.56 1289.14 402.86 1290.44 413 1292 C402.86 1293.56 401.56 1294.86 400 1305 C398.44 1294.86 397.14 1293.56 387 1292 C397.14 1290.44 398.44 1289.14 400 1279Z" fill="#d99a8b" opacity="0.52"/><path d="M537 1367 C538.92 1379.48 540.52 1381.08 553 1383 C540.52 1384.92 538.92 1386.52 537 1399 C535.08 1386.52 533.48 1384.92 521 1383 C533.48 1381.08 535.08 1379.48 537 1367Z" fill="#cfa15f" opacity="0.52"/><path d="M674 1467 C674.84 1472.46 675.54 1473.16 681 1474 C675.54 1474.84 674.84 1475.54 674 1481 C673.16 1475.54 672.46 1474.84 667 1474 C672.46 1473.16 673.16 1472.46 674 1467Z" fill="#d99a8b" opacity="0.52"/><path d="M811 1555 C812.2 1562.8 813.2 1563.8 821 1565 C813.2 1566.2 812.2 1567.2 811 1575 C809.8 1567.2 808.8 1566.2 801 1565 C808.8 1563.8 809.8 1562.8 811 1555Z" fill="#cfa15f" opacity="0.52"/><path d="M948 1643 C949.56 1653.14 950.86 1654.44 961 1656 C950.86 1657.56 949.56 1658.86 948 1669 C946.44 1658.86 945.14 1657.56 935 1656 C945.14 1654.44 946.44 1653.14 948 1643Z" fill="#d99a8b" opacity="0.52"/><path d="M1085 1731 C1086.92 1743.48 1088.52 1745.08 1101 1747 C1088.52 1748.92 1086.92 1750.52 1085 1763 C1083.08 1750.52 1081.48 1748.92 1069 1747 C1081.48 1745.08 1083.08 1743.48 1085 1731Z" fill="#cfa15f" opacity="0.52"/><path d="M1222 1831 C1222.84 1836.46 1223.54 1837.16 1229 1838 C1223.54 1838.84 1222.84 1839.54 1222 1845 C1221.16 1839.54 1220.46 1838.84 1215 1838 C1220.46 1837.16 1221.16 1836.46 1222 1831Z" fill="#d99a8b" opacity="0.52"/><path d="M1359 1919 C1360.2 1926.8 1361.2 1927.8 1369 1929 C1361.2 1930.2 1360.2 1931.2 1359 1939 C1357.8 1931.2 1356.8 1930.2 1349 1929 C1356.8 1927.8 1357.8 1926.8 1359 1919Z" fill="#cfa15f" opacity="0.52"/><path d="M1496 2007 C1497.56 2017.14 1498.86 2018.44 1509 2020 C1498.86 2021.56 1497.56 2022.86 1496 2033 C1494.44 2022.86 1493.14 2021.56 1483 2020 C1493.14 2018.44 1494.44 2017.14 1496 2007Z" fill="#d99a8b" opacity="0.52"/><path d="M97 2095 C98.92 2107.48 100.52 2109.08 113 2111 C100.52 2112.92 98.92 2114.52 97 2127 C95.08 2114.52 93.48 2112.92 81 2111 C93.48 2109.08 95.08 2107.48 97 2095Z" fill="#cfa15f" opacity="0.52"/><path d="M234 2195 C234.84 2200.46 235.54 2201.16 241 2202 C235.54 2202.84 234.84 2203.54 234 2209 C233.16 2203.54 232.46 2202.84 227 2202 C232.46 2201.16 233.16 2200.46 234 2195Z" fill="#d99a8b" opacity="0.52"/><path d="M371 2283 C372.2 2290.8 373.2 2291.8 381 2293 C373.2 2294.2 372.2 2295.2 371 2303 C369.8 2295.2 368.8 2294.2 361 2293 C368.8 2291.8 369.8 2290.8 371 2283Z" fill="#cfa15f" opacity="0.52"/><path d="M508 67 C509.56 77.14 510.86 78.44 521 80 C510.86 81.56 509.56 82.86 508 93 C506.44 82.86 505.14 81.56 495 80 C505.14 78.44 506.44 77.14 508 67Z" fill="#d99a8b" opacity="0.52"/><path d="M645 155 C646.92 167.48 648.52 169.08 661 171 C648.52 172.92 646.92 174.52 645 187 C643.08 174.52 641.48 172.92 629 171 C641.48 169.08 643.08 167.48 645 155Z" fill="#cfa15f" opacity="0.52"/><path d="M782 255 C782.84 260.46 783.54 261.16 789 262 C783.54 262.84 782.84 263.54 782 269 C781.16 263.54 780.46 262.84 775 262 C780.46 261.16 781.16 260.46 782 255Z" fill="#d99a8b" opacity="0.52"/><path d="M919 343 C920.2 350.8 921.2 351.8 929 353 C921.2 354.2 920.2 355.2 919 363 C917.8 355.2 916.8 354.2 909 353 C916.8 351.8 917.8 350.8 919 343Z" fill="#cfa15f" opacity="0.52"/><path d="M1056 431 C1057.56 441.14 1058.86 442.44 1069 444 C1058.86 445.56 1057.56 446.86 1056 457 C1054.44 446.86 1053.14 445.56 1043 444 C1053.14 442.44 1054.44 441.14 1056 431Z" fill="#d99a8b" opacity="0.52"/><path d="M1193 519 C1194.92 531.48 1196.52 533.08 1209 535 C1196.52 536.92 1194.92 538.52 1193 551 C1191.08 538.52 1189.48 536.92 1177 535 C1189.48 533.08 1191.08 531.48 1193 519Z" fill="#cfa15f" opacity="0.52"/><path d="M1330 619 C1330.84 624.46 1331.54 625.16 1337 626 C1331.54 626.84 1330.84 627.54 1330 633 C1329.16 627.54 1328.46 626.84 1323 626 C1328.46 625.16 1329.16 624.46 1330 619Z" fill="#d99a8b" opacity="0.52"/><path d="M1467 707 C1468.2 714.8 1469.2 715.8 1477 717 C1469.2 718.2 1468.2 719.2 1467 727 C1465.8 719.2 1464.8 718.2 1457 717 C1464.8 715.8 1465.8 714.8 1467 707Z" fill="#cfa15f" opacity="0.52"/><path d="M68 795 C69.56 805.14 70.86 806.44 81 808 C70.86 809.56 69.56 810.86 68 821 C66.44 810.86 65.14 809.56 55 808 C65.14 806.44 66.44 805.14 68 795Z" fill="#d99a8b" opacity="0.52"/><path d="M205 883 C206.92 895.48 208.52 897.08 221 899 C208.52 900.92 206.92 902.52 205 915 C203.08 902.52 201.48 900.92 189 899 C201.48 897.08 203.08 895.48 205 883Z" fill="#cfa15f" opacity="0.52"/><path d="M342 983 C342.84 988.46 343.54 989.16 349 990 C343.54 990.84 342.84 991.54 342 997 C341.16 991.54 340.46 990.84 335 990 C340.46 989.16 341.16 988.46 342 983Z" fill="#d99a8b" opacity="0.52"/><path d="M479 1071 C480.2 1078.8 481.2 1079.8 489 1081 C481.2 1082.2 480.2 1083.2 479 1091 C477.8 1083.2 476.8 1082.2 469 1081 C476.8 1079.8 477.8 1078.8 479 1071Z" fill="#cfa15f" opacity="0.52"/>
</svg>