<?xml version="1.0" encoding="UTF-8"?>
<svg xmlns="http://www.w3.org/2000/svg" width="1200" height="1600" viewBox="0 0 1200 1600" fill="none">
  <defs>
    <linearGradient id="goldRose" x1="0%" x2="100%" y1="0%" y2="100%">
      <stop offset="0%" stop-color="#f3d89f"/>
      <stop offset="50%" stop-color="#d99a8b"/>
      <stop offset="100%" stop-color="#cfa15f"/>
    </linearGradient>
    <linearGradient id="creamBlush" x1="0%" x2="100%" y1="0%" y2="100%">
      <stop offset="0%" stop-color="#fffaf1"/>
      <stop offset="100%" stop-color="#f5c6ce"/>
    </linearGradient>
    <linearGradient id="roseDeep" x1="0%" x2="0%" y1="0%" y2="100%">
      <stop offset="0%" stop-color="#c56f82"/>
      <stop offset="100%" stop-color="#a8586c"/>
    </linearGradient>
    <linearGradient id="goldShine" x1="0%" x2="100%" y1="0%" y2="0%">
      <stop offset="0%" stop-color="#cfa15f" stop-opacity="0.4"/>
      <stop offset="50%" stop-color="#f3d89f" stop-opacity="0.9"/>
      <stop offset="100%" stop-color="#cfa15f" stop-opacity="0.4"/>
    </linearGradient>
    <radialGradient id="softGlow" cx="50%" cy="48%" r="55%">
      <stop offset="0%" stop-color="#ffffff" stop-opacity="0.95"/>
      <stop offset="45%" stop-color="#f5c6ce" stop-opacity="0.5"/>
      <stop offset="100%" stop-color="#d99a8b" stop-opacity="0"/>
    </radialGradient>
    <radialGradient id="warmGlow" cx="50%" cy="50%" r="50%">
      <stop offset="0%" stop-color="#f3d89f" stop-opacity="0.6"/>
      <stop offset="60%" stop-color="#cfa15f" stop-opacity="0.2"/>
      <stop offset="100%" stop-color="#cfa15f" stop-opacity="0"/>
    </radialGradient>
    <filter id="gentleShadow" x="-20%" y="-20%" width="140%" height="140%" color-interpolation-filters="sRGB">
      <feDropShadow dx="0" dy="22" stdDeviation="28" flood-color="#11172d" flood-opacity="0.18"/>
    </filter>
    <filter id="innerGlow" x="-30%" y="-30%" width="160%" height="160%" color-interpolation-filters="sRGB">
      <feGaussianBlur stdDeviation="8" result="blur"/>
      <feComposite in="SourceGraphic" in2="blur" operator="over"/>
    </filter>
  </defs>
  <ellipse cx="600" cy="800" rx="438" ry="598" fill="none" stroke="url(#goldRose)" stroke-width="28" filter="url(#gentleShadow)"/>
       <ellipse cx="600" cy="800" rx="394" ry="554" fill="none" stroke="#cfa15f" stroke-width="4" stroke-dasharray="12 16" opacity="0.4"/>
       <ellipse cx="600" cy="800" rx="374" ry="532" fill="none" stroke="#d99a8b" stroke-width="10"/>
       <!-- Top and Bottom large celestial stars -->
       <polygon points="600,122 609.1844023767621,179.82689121972913 656.5685424949238,145.4314575050762 622.1731087802709,192.81559762323784 680,202 622.1731087802709,211.18440237676216 656.5685424949238,258.5685424949238 609.1844023767621,224.17310878027087 600,282 590.8155976232379,224.17310878027087 543.4314575050762,258.5685424949238 577.8268912197291,211.18440237676216 520,202 577.8268912197291,192.81559762323784 543.4314575050762,145.4314575050762 590.8155976232379,179.82689121972913" fill="#fff7ea" stroke="url(#goldRose)" stroke-width="6"/>
       <polygon points="600,1318 609.1844023767621,1375.826891219729 656.5685424949238,1341.4314575050762 622.1731087802709,1388.8155976232379 680,1398 622.1731087802709,1407.1844023767621 656.5685424949238,1454.5685424949238 609.1844023767621,1420.173108780271 600,1478 590.8155976232379,1420.173108780271 543.4314575050762,1454.5685424949238 577.8268912197291,1407.1844023767621 520,1398 577.8268912197291,1388.8155976232379 543.4314575050762,1341.4314575050762 590.8155976232379,1375.826891219729" fill="#fff7ea" stroke="url(#goldRose)" stroke-width="6"/>
       <!-- Side crescent moons framing the oval -->
       <path d="M162 720 A 100 100 0 0 0 162 880 A 70 70 0 0 1 162 720" fill="#cfa15f"/>
       <path d="M1038 720 A 100 100 0 0 1 1038 880 A 70 70 0 0 0 1038 720" fill="#cfa15f"/>
    <ellipse cx="600" cy="800" rx="340" ry="496" fill="none" stroke="#cfa15f" stroke-width="4" stroke-dasharray="14 18" opacity="0.35"/>
    <path d="M1008 792 C1008.96 798.24 1009.76 799.04 1016 800 C1009.76 800.96 1008.96 801.76 1008 808 C1007.04 801.76 1006.24 800.96 1000 800 C1006.24 799.04 1007.04 798.24 1008 792Z" fill="#cfa15f" opacity="0.45"/><circle cx="1000.160394404518" cy="910.4211222611286" r="4" fill="#d99a8b" opacity="0.4"/><circle cx="976.942849264605" cy="1016.5988227186408" r="4" fill="#d99a8b" opacity="0.4"/><circle cx="939.2396018194385" cy="1114.4527518890948" r="4" fill="#d99a8b" opacity="0.4"/><path d="M888.4995667241114 1192.222438151586 C889.4595667241115 1198.462438151586 890.2595667241114 1199.262438151586 896.4995667241114 1200.222438151586 C890.2595667241114 1201.182438151586 889.4595667241115 1201.982438151586 888.4995667241114 1208.222438151586 C887.5395667241114 1201.982438151586 886.7395667241115 1201.182438151586 880.4995667241114 1200.222438151586 C886.7395667241115 1199.262438151586 887.5395667241114 1198.462438151586 888.4995667241114 1192.222438151586Z" fill="#cfa15f" opacity="0.45"/><circle cx="826.6726550719977" cy="1270.6118005632406" r="4" fill="#d99a8b" opacity="0.4"/><circle cx="756.1348404049567" cy="1322.9158154013883" r="4" fill="#d99a8b" opacity="0.4"/><circle cx="679.5968513825803" cy="1355.1244687082285" r="4" fill="#d99a8b" opacity="0.4"/><path d="M600 1358 C600.96 1364.24 601.76 1365.04 608 1366 C601.76 1366.96 600.96 1367.76 600 1374 C599.04 1367.76 598.24 1366.96 592 1366 C598.24 1365.04 599.04 1364.24 600 1358Z" fill="#cfa15f" opacity="0.45"/><circle cx="520.4031486174197" cy="1355.1244687082285" r="4" fill="#d99a8b" opacity="0.4"/><circle cx="443.8651595950434" cy="1322.9158154013883" r="4" fill="#d99a8b" opacity="0.4"/><circle cx="373.3273449280024" cy="1270.6118005632406" r="4" fill="#d99a8b" opacity="0.4"/><path d="M311.5004332758886 1192.222438151586 C312.4604332758886 1198.462438151586 313.2604332758886 1199.262438151586 319.5004332758886 1200.222438151586 C313.2604332758886 1201.182438151586 312.4604332758886 1201.982438151586 311.5004332758886 1208.222438151586 C310.54043327588863 1201.982438151586 309.7404332758886 1201.182438151586 303.5004332758886 1200.222438151586 C309.7404332758886 1199.262438151586 310.54043327588863 1198.462438151586 311.5004332758886 1192.222438151586Z" fill="#cfa15f" opacity="0.45"/><circle cx="260.7603981805615" cy="1114.4527518890948" r="4" fill="#d99a8b" opacity="0.4"/><circle cx="223.057150735395" cy="1016.5988227186409" r="4" fill="#d99a8b" opacity="0.4"/><circle cx="199.839605595482" cy="910.4211222611287" r="4" fill="#d99a8b" opacity="0.4"/><path d="M192 792.0000000000001 C192.96 798.2400000000001 193.76 799.0400000000001 200 800.0000000000001 C193.76 800.9600000000002 192.96 801.7600000000001 192 808.0000000000001 C191.04 801.7600000000001 190.24 800.9600000000002 184 800.0000000000001 C190.24 799.0400000000001 191.04 798.2400000000001 192 792.0000000000001Z" fill="#cfa15f" opacity="0.45"/><circle cx="199.839605595482" cy="689.5788777388714" r="4" fill="#d99a8b" opacity="0.4"/><circle cx="223.05715073539494" cy="583.4011772813592" r="4" fill="#d99a8b" opacity="0.4"/><circle cx="260.7603981805615" cy="485.5472481109053" r="4" fill="#d99a8b" opacity="0.4"/><path d="M311.50043327588855 391.7775618484141 C312.46043327588853 398.0175618484141 313.26043327588854 398.81756184841413 319.50043327588855 399.7775618484141 C313.26043327588854 400.7375618484141 312.46043327588853 401.5375618484141 311.50043327588855 407.7775618484141 C310.5404332758886 401.5375618484141 309.74043327588856 400.7375618484141 303.50043327588855 399.7775618484141 C309.74043327588856 398.81756184841413 310.5404332758886 398.0175618484141 311.50043327588855 391.7775618484141Z" fill="#cfa15f" opacity="0.45"/><circle cx="373.3273449280023" cy="329.3881994367594" r="4" fill="#d99a8b" opacity="0.4"/><circle cx="443.8651595950431" cy="277.08418459861184" r="4" fill="#d99a8b" opacity="0.4"/><circle cx="520.4031486174194" cy="244.8755312917716" r="4" fill="#d99a8b" opacity="0.4"/><path d="M599.9999999999999 226 C600.9599999999999 232.24 601.7599999999999 233.04 607.9999999999999 234 C601.7599999999999 234.96 600.9599999999999 235.76 599.9999999999999 242 C599.0399999999998 235.76 598.2399999999999 234.96 591.9999999999999 234 C598.2399999999999 233.04 599.0399999999998 232.24 599.9999999999999 226Z" fill="#cfa15f" opacity="0.45"/><circle cx="679.5968513825803" cy="244.8755312917716" r="4" fill="#d99a8b" opacity="0.4"/><circle cx="756.1348404049568" cy="277.0841845986117" r="4" fill="#d99a8b" opacity="0.4"/><circle cx="826.6726550719975" cy="329.3881994367593" r="4" fill="#d99a8b" opacity="0.4"/><path d="M888.4995667241113 391.777561848414 C889.4595667241114 398.017561848414 890.2595667241113 398.817561848414 896.4995667241113 399.777561848414 C890.2595667241113 400.737561848414 889.4595667241114 401.537561848414 888.4995667241113 407.777561848414 C887.5395667241113 401.537561848414 886.7395667241113 400.737561848414 880.4995667241113 399.777561848414 C886.7395667241113 398.817561848414 887.5395667241113 398.017561848414 888.4995667241113 391.777561848414Z" fill="#cfa15f" opacity="0.45"/><circle cx="939.2396018194385" cy="485.5472481109052" r="4" fill="#d99a8b" opacity="0.4"/><circle cx="976.9428492646049" cy="583.4011772813589" r="4" fill="#d99a8b" opacity="0.4"/><circle cx="1000.160394404518" cy="689.5788777388711" r="4" fill="#d99a8b" opacity="0.4"/>
    <polygon points="600,96 610.7151361062225,144.13137308968396 652.3259018078045,117.67409819219549 625.868626910316,159.2848638937775 674,170 625.868626910316,180.7151361062225 652.3259018078045,222.3259018078045 610.7151361062225,195.86862691031604 600,244 589.2848638937775,195.86862691031604 547.6740981921955,222.3259018078045 574.131373089684,180.71513610622253 526,170 574.131373089684,159.28486389377747 547.6740981921955,117.67409819219549 589.2848638937775,144.13137308968396" fill="url(#goldRose)"/>
    <path d="M210 222 C213.36 243.84 216.16 246.64 238 250 C216.16 253.36 213.36 256.16 210 278 C206.64 256.16 203.84 253.36 182 250 C203.84 246.64 206.64 243.84 210 222Z" fill="url(#goldRose)" opacity="1"/>
    <path d="M990 222 C993.36 243.84 996.16 246.64 1018 250 C996.16 253.36 993.36 256.16 990 278 C986.64 256.16 983.84 253.36 962 250 C983.84 246.64 986.64 243.84 990 222Z" fill="#d99a8b" opacity="0.84"/>
    <path d="M210 1326 C212.88 1344.72 215.28 1347.12 234 1350 C215.28 1352.88 212.88 1355.28 210 1374 C207.12 1355.28 204.72 1352.88 186 1350 C204.72 1347.12 207.12 1344.72 210 1326Z" fill="#cfa15f" opacity="0.78"/>
    <path d="M990 1326 C992.88 1344.72 995.28 1347.12 1014 1350 C995.28 1352.88 992.88 1355.28 990 1374 C987.12 1355.28 984.72 1352.88 966 1350 C984.72 1347.12 987.12 1344.72 990 1326Z" fill="#d99a8b" opacity="0.78"/>
    <!-- Corner mini-hearts -->
    <path d="M174 182.4 C164.2 175.4 164.2 168.4 174 171.9 C183.8 168.4 183.8 175.4 174 182.4Z" fill="#c56f82" opacity="0.4"/>
    <path d="M1026 182.4 C1016.2 175.4 1016.2 168.4 1026 171.9 C1035.8 168.4 1035.8 175.4 1026 182.4Z" fill="#c56f82" opacity="0.4"/>
    <path d="M174 1434.4 C164.2 1427.4 164.2 1420.4 174 1423.9 C183.8 1420.4 183.8 1427.4 174 1434.4Z" fill="#c56f82" opacity="0.4"/>
    <path d="M1026 1434.4 C1016.2 1427.4 1016.2 1420.4 1026 1423.9 C1035.8 1420.4 1035.8 1427.4 1026 1434.4Z" fill="#c56f82" opacity="0.4"/>
</svg>