<?xml version="1.0" encoding="UTF-8"?>
<svg xmlns="http://www.w3.org/2000/svg" width="1200" height="1600" viewBox="0 0 1200 1600" fill="none">
  <defs>
    <linearGradient id="goldRose" x1="0%" x2="100%" y1="0%" y2="100%">
      <stop offset="0%" stop-color="#f3d89f"/>
      <stop offset="50%" stop-color="#d99a8b"/>
      <stop offset="100%" stop-color="#cfa15f"/>
    </linearGradient>
    <linearGradient id="creamBlush" x1="0%" x2="100%" y1="0%" y2="100%">
      <stop offset="0%" stop-color="#fffaf1"/>
      <stop offset="100%" stop-color="#f5c6ce"/>
    </linearGradient>
    <linearGradient id="roseDeep" x1="0%" x2="0%" y1="0%" y2="100%">
      <stop offset="0%" stop-color="#c56f82"/>
      <stop offset="100%" stop-color="#a8586c"/>
    </linearGradient>
    <linearGradient id="goldShine" x1="0%" x2="100%" y1="0%" y2="0%">
      <stop offset="0%" stop-color="#cfa15f" stop-opacity="0.4"/>
      <stop offset="50%" stop-color="#f3d89f" stop-opacity="0.9"/>
      <stop offset="100%" stop-color="#cfa15f" stop-opacity="0.4"/>
    </linearGradient>
    <radialGradient id="softGlow" cx="50%" cy="48%" r="55%">
      <stop offset="0%" stop-color="#ffffff" stop-opacity="0.95"/>
      <stop offset="45%" stop-color="#f5c6ce" stop-opacity="0.5"/>
      <stop offset="100%" stop-color="#d99a8b" stop-opacity="0"/>
    </radialGradient>
    <radialGradient id="warmGlow" cx="50%" cy="50%" r="50%">
      <stop offset="0%" stop-color="#f3d89f" stop-opacity="0.6"/>
      <stop offset="60%" stop-color="#cfa15f" stop-opacity="0.2"/>
      <stop offset="100%" stop-color="#cfa15f" stop-opacity="0"/>
    </radialGradient>
    <filter id="gentleShadow" x="-20%" y="-20%" width="140%" height="140%" color-interpolation-filters="sRGB">
      <feDropShadow dx="0" dy="22" stdDeviation="28" flood-color="#11172d" flood-opacity="0.18"/>
    </filter>
    <filter id="innerGlow" x="-30%" y="-30%" width="160%" height="160%" color-interpolation-filters="sRGB">
      <feGaussianBlur stdDeviation="8" result="blur"/>
      <feComposite in="SourceGraphic" in2="blur" operator="over"/>
    </filter>
  </defs>
  <g>
      <rect x="150" y="156" width="900" height="1288" rx="104" fill="none" stroke="url(#goldRose)" stroke-width="22"/>
      <rect x="198" y="214" width="804" height="1172" rx="66" fill="none" stroke="#d99a8b" stroke-width="8" opacity="0.78"/>
      <rect x="244" y="270" width="712" height="1060" rx="42" fill="none" stroke="#cfa15f" stroke-width="4" stroke-dasharray="14 18" opacity="0.46"/>
      <path d="M178 178 C220 185 234 220 199 255 C185 269 171 248 189.2 227" stroke="#cfa15f" stroke-width="8" stroke-linecap="round" fill="none" opacity="0.72"/>
  <path d="M178 178 C185 220 220 234 255 199 C269 185 248 171 227 189.2" stroke="#cfa15f" stroke-width="8" stroke-linecap="round" fill="none" opacity="0.72"/>
      <path d="M1022 178 C980 185 966 220 1001 255 C1015 269 1029 248 1010.8 227" stroke="#cfa15f" stroke-width="8" stroke-linecap="round" fill="none" opacity="0.72"/>
  <path d="M1022 178 C1015 220 980 234 945 199 C931 185 952 171 973 189.2" stroke="#cfa15f" stroke-width="8" stroke-linecap="round" fill="none" opacity="0.72"/>
      <path d="M178 1422 C220 1415 234 1380 199 1345 C185 1331 171 1352 189.2 1373" stroke="#d99a8b" stroke-width="8" stroke-linecap="round" fill="none" opacity="0.72"/>
  <path d="M178 1422 C185 1380 220 1366 255 1401 C269 1415 248 1429 227 1410.8" stroke="#d99a8b" stroke-width="8" stroke-linecap="round" fill="none" opacity="0.72"/>
      <path d="M1022 1422 C980 1415 966 1380 1001 1345 C1015 1331 1029 1352 1010.8 1373" stroke="#d99a8b" stroke-width="8" stroke-linecap="round" fill="none" opacity="0.72"/>
  <path d="M1022 1422 C1015 1380 980 1366 945 1401 C931 1415 952 1429 973 1410.8" stroke="#d99a8b" stroke-width="8" stroke-linecap="round" fill="none" opacity="0.72"/>
      <path d="M600 142 C604.56 171.64 608.36 175.44 638 180 C608.36 184.56 604.56 188.36 600 218 C595.44 188.36 591.64 184.56 562 180 C591.64 175.44 595.44 171.64 600 142Z" fill="#cfa15f" opacity="0.86"/>
      <path d="M228 782 C230.16 796.04 231.96 797.84 246 800 C231.96 802.16 230.16 803.96 228 818 C225.84 803.96 224.04 802.16 210 800 C224.04 797.84 225.84 796.04 228 782Z" fill="#d99a8b" opacity="0.62"/>
      <path d="M972 782 C974.16 796.04 975.96 797.84 990 800 C975.96 802.16 974.16 803.96 972 818 C969.84 803.96 968.04 802.16 954 800 C968.04 797.84 969.84 796.04 972 782Z" fill="#cfa15f" opacity="0.62"/>
      <path d="M212 1380.8 C199.4 1371.8 199.4 1362.8 212 1367.3 C224.6 1362.8 224.6 1371.8 212 1380.8Z" fill="#c56f82" opacity="0.42"/>
      <path d="M988 240.8 C975.4 231.8 975.4 222.8 988 227.3 C1000.6 222.8 1000.6 231.8 988 240.8Z" fill="#c56f82" opacity="0.42"/>
    </g>
</svg>