<?xml version="1.0" encoding="UTF-8"?>
<svg xmlns="http://www.w3.org/2000/svg" width="1200" height="1600" viewBox="0 0 1200 1600" fill="none">
  <defs>
    <linearGradient id="goldRose" x1="0%" x2="100%" y1="0%" y2="100%">
      <stop offset="0%" stop-color="#f3d89f"/>
      <stop offset="50%" stop-color="#d99a8b"/>
      <stop offset="100%" stop-color="#cfa15f"/>
    </linearGradient>
    <linearGradient id="creamBlush" x1="0%" x2="100%" y1="0%" y2="100%">
      <stop offset="0%" stop-color="#fffaf1"/>
      <stop offset="100%" stop-color="#f5c6ce"/>
    </linearGradient>
    <linearGradient id="roseDeep" x1="0%" x2="0%" y1="0%" y2="100%">
      <stop offset="0%" stop-color="#c56f82"/>
      <stop offset="100%" stop-color="#a8586c"/>
    </linearGradient>
    <linearGradient id="goldShine" x1="0%" x2="100%" y1="0%" y2="0%">
      <stop offset="0%" stop-color="#cfa15f" stop-opacity="0.4"/>
      <stop offset="50%" stop-color="#f3d89f" stop-opacity="0.9"/>
      <stop offset="100%" stop-color="#cfa15f" stop-opacity="0.4"/>
    </linearGradient>
    <radialGradient id="softGlow" cx="50%" cy="48%" r="55%">
      <stop offset="0%" stop-color="#ffffff" stop-opacity="0.95"/>
      <stop offset="45%" stop-color="#f5c6ce" stop-opacity="0.5"/>
      <stop offset="100%" stop-color="#d99a8b" stop-opacity="0"/>
    </radialGradient>
    <radialGradient id="warmGlow" cx="50%" cy="50%" r="50%">
      <stop offset="0%" stop-color="#f3d89f" stop-opacity="0.6"/>
      <stop offset="60%" stop-color="#cfa15f" stop-opacity="0.2"/>
      <stop offset="100%" stop-color="#cfa15f" stop-opacity="0"/>
    </radialGradient>
    <filter id="gentleShadow" x="-20%" y="-20%" width="140%" height="140%" color-interpolation-filters="sRGB">
      <feDropShadow dx="0" dy="22" stdDeviation="28" flood-color="#11172d" flood-opacity="0.18"/>
    </filter>
    <filter id="innerGlow" x="-30%" y="-30%" width="160%" height="160%" color-interpolation-filters="sRGB">
      <feGaussianBlur stdDeviation="8" result="blur"/>
      <feComposite in="SourceGraphic" in2="blur" operator="over"/>
    </filter>
  </defs>
  <g>
        <ellipse cx="600" cy="800" rx="395" ry="540" fill="none" stroke="url(#goldRose)" stroke-width="22"/>
        <ellipse cx="600" cy="800" rx="350" ry="492" fill="none" stroke="#d99a8b" stroke-width="8" opacity="0.74"/>
        <ellipse cx="600" cy="800" rx="304" ry="434" fill="none" stroke="#cfa15f" stroke-width="4" stroke-dasharray="16 18" opacity="0.46"/>
        <path d="M600 218 C604.8 249.2 608.8 253.2 640 258 C608.8 262.8 604.8 266.8 600 298 C595.2 266.8 591.2 262.8 560 258 C591.2 253.2 595.2 249.2 600 218Z" fill="#cfa15f" opacity="0.9"/>
        <path d="M600 1308 C604.08 1334.52 607.48 1337.92 634 1342 C607.48 1346.08 604.08 1349.48 600 1376 C595.92 1349.48 592.52 1346.08 566 1342 C592.52 1337.92 595.92 1334.52 600 1308Z" fill="#d99a8b" opacity="0.8"/>
        <path d="M210 668 C212.64 685.16 214.84 687.36 232 690 C214.84 692.64 212.64 694.84 210 712 C207.36 694.84 205.16 692.64 188 690 C205.16 687.36 207.36 685.16 210 668Z" fill="#d99a8b" opacity="0.62"/>
        <path d="M990 888 C992.64 905.16 994.84 907.36 1012 910 C994.84 912.64 992.64 914.84 990 932 C987.36 914.84 985.16 912.64 968 910 C985.16 907.36 987.36 905.16 990 888Z" fill="#cfa15f" opacity="0.62"/>
        <path d="M336 1196.8 C323.4 1187.8 323.4 1178.8 336 1183.3 C348.6 1178.8 348.6 1187.8 336 1196.8Z" fill="#c56f82" opacity="0.44"/>
        <path d="M864 424.8 C851.4 415.8 851.4 406.8 864 411.3 C876.6 406.8 876.6 415.8 864 424.8Z" fill="#c56f82" opacity="0.44"/>
      </g>
</svg>