<?xml version="1.0" encoding="UTF-8"?>
<svg xmlns="http://www.w3.org/2000/svg" width="1024" height="1024" viewBox="0 0 1024 1024" fill="none">
  <defs>
    <linearGradient id="goldRose" x1="0%" x2="100%" y1="0%" y2="100%">
      <stop offset="0%" stop-color="#f3d89f"/>
      <stop offset="50%" stop-color="#d99a8b"/>
      <stop offset="100%" stop-color="#cfa15f"/>
    </linearGradient>
    <linearGradient id="creamBlush" x1="0%" x2="100%" y1="0%" y2="100%">
      <stop offset="0%" stop-color="#fffaf1"/>
      <stop offset="100%" stop-color="#f5c6ce"/>
    </linearGradient>
    <linearGradient id="roseDeep" x1="0%" x2="0%" y1="0%" y2="100%">
      <stop offset="0%" stop-color="#c56f82"/>
      <stop offset="100%" stop-color="#a8586c"/>
    </linearGradient>
    <linearGradient id="goldShine" x1="0%" x2="100%" y1="0%" y2="0%">
      <stop offset="0%" stop-color="#cfa15f" stop-opacity="0.4"/>
      <stop offset="50%" stop-color="#f3d89f" stop-opacity="0.9"/>
      <stop offset="100%" stop-color="#cfa15f" stop-opacity="0.4"/>
    </linearGradient>
    <radialGradient id="softGlow" cx="50%" cy="48%" r="55%">
      <stop offset="0%" stop-color="#ffffff" stop-opacity="0.95"/>
      <stop offset="45%" stop-color="#f5c6ce" stop-opacity="0.5"/>
      <stop offset="100%" stop-color="#d99a8b" stop-opacity="0"/>
    </radialGradient>
    <radialGradient id="warmGlow" cx="50%" cy="50%" r="50%">
      <stop offset="0%" stop-color="#f3d89f" stop-opacity="0.6"/>
      <stop offset="60%" stop-color="#cfa15f" stop-opacity="0.2"/>
      <stop offset="100%" stop-color="#cfa15f" stop-opacity="0"/>
    </radialGradient>
    <filter id="gentleShadow" x="-20%" y="-20%" width="140%" height="140%" color-interpolation-filters="sRGB">
      <feDropShadow dx="0" dy="22" stdDeviation="28" flood-color="#11172d" flood-opacity="0.18"/>
    </filter>
    <filter id="innerGlow" x="-30%" y="-30%" width="160%" height="160%" color-interpolation-filters="sRGB">
      <feGaussianBlur stdDeviation="8" result="blur"/>
      <feComposite in="SourceGraphic" in2="blur" operator="over"/>
    </filter>
  </defs>
  <path d="M142 512 H882" stroke="url(#goldRose)" stroke-width="20" stroke-linecap="round"/>
    <path d="M228 458 C318 522 402 522 492 458 C582 522 670 522 760 458" stroke="#d99a8b" stroke-width="10" stroke-linecap="round" opacity="0.76"/>
    <circle cx="512" cy="512" r="78" fill="#fff7ea" stroke="url(#goldRose)" stroke-width="14" filter="url(#gentleShadow)"/>
    <mask id="miniCrescent"><rect width="1024" height="1024" fill="white"/><circle cx="536" cy="496" r="48" fill="black"/></mask><circle cx="500" cy="512" r="58" fill="#c56f82" mask="url(#miniCrescent)"/>
    <path d="M338 494 C340.16 508.04 341.96 509.84 356 512 C341.96 514.16 340.16 515.96 338 530 C335.84 515.96 334.04 514.16 320 512 C334.04 509.84 335.84 508.04 338 494Z" fill="url(#goldRose)" opacity="1"/>
    <path d="M686 494 C688.16 508.04 689.96 509.84 704 512 C689.96 514.16 688.16 515.96 686 530 C683.84 515.96 682.04 514.16 668 512 C682.04 509.84 683.84 508.04 686 494Z" fill="url(#goldRose)" opacity="1"/>
    <circle cx="142" cy="512" r="30" fill="#f5c6ce" stroke="#cfa15f" stroke-width="8"/>
    <circle cx="882" cy="512" r="30" fill="#f5c6ce" stroke="#cfa15f" stroke-width="8"/>
</svg>