<?xml version="1.0" encoding="UTF-8"?>
<svg xmlns="http://www.w3.org/2000/svg" width="1024" height="1024" viewBox="0 0 1024 1024" fill="none">
  <defs>
    <linearGradient id="goldRose" x1="0%" x2="100%" y1="0%" y2="100%">
      <stop offset="0%" stop-color="#f3d89f"/>
      <stop offset="50%" stop-color="#d99a8b"/>
      <stop offset="100%" stop-color="#cfa15f"/>
    </linearGradient>
    <linearGradient id="creamBlush" x1="0%" x2="100%" y1="0%" y2="100%">
      <stop offset="0%" stop-color="#fffaf1"/>
      <stop offset="100%" stop-color="#f5c6ce"/>
    </linearGradient>
    <linearGradient id="roseDeep" x1="0%" x2="0%" y1="0%" y2="100%">
      <stop offset="0%" stop-color="#c56f82"/>
      <stop offset="100%" stop-color="#a8586c"/>
    </linearGradient>
    <linearGradient id="goldShine" x1="0%" x2="100%" y1="0%" y2="0%">
      <stop offset="0%" stop-color="#cfa15f" stop-opacity="0.4"/>
      <stop offset="50%" stop-color="#f3d89f" stop-opacity="0.9"/>
      <stop offset="100%" stop-color="#cfa15f" stop-opacity="0.4"/>
    </linearGradient>
    <radialGradient id="softGlow" cx="50%" cy="48%" r="55%">
      <stop offset="0%" stop-color="#ffffff" stop-opacity="0.95"/>
      <stop offset="45%" stop-color="#f5c6ce" stop-opacity="0.5"/>
      <stop offset="100%" stop-color="#d99a8b" stop-opacity="0"/>
    </radialGradient>
    <radialGradient id="warmGlow" cx="50%" cy="50%" r="50%">
      <stop offset="0%" stop-color="#f3d89f" stop-opacity="0.6"/>
      <stop offset="60%" stop-color="#cfa15f" stop-opacity="0.2"/>
      <stop offset="100%" stop-color="#cfa15f" stop-opacity="0"/>
    </radialGradient>
    <filter id="gentleShadow" x="-20%" y="-20%" width="140%" height="140%" color-interpolation-filters="sRGB">
      <feDropShadow dx="0" dy="22" stdDeviation="28" flood-color="#11172d" flood-opacity="0.18"/>
    </filter>
    <filter id="innerGlow" x="-30%" y="-30%" width="160%" height="160%" color-interpolation-filters="sRGB">
      <feGaussianBlur stdDeviation="8" result="blur"/>
      <feComposite in="SourceGraphic" in2="blur" operator="over"/>
    </filter>
  </defs>
  <circle cx="512" cy="512" r="332" fill="url(#softGlow)"/>
    <path d="M512 736 C342 612 244 526 244 396 C244 310 310 246 394 246 C448 246 490 274 512 318 C534 274 576 246 630 246 C714 246 780 310 780 396 C780 526 682 612 512 736Z" fill="#c56f82" stroke="url(#goldRose)" stroke-width="24" filter="url(#gentleShadow)"/>
    <path d="M376 334 C330 374 330 462 384 510" stroke="#fff7ea" stroke-width="18" stroke-linecap="round" opacity="0.76"/>
    <path d="M252 252 C255.36 273.84 258.16 276.64 280 280 C258.16 283.36 255.36 286.16 252 308 C248.64 286.16 245.84 283.36 224 280 C245.84 276.64 248.64 273.84 252 252Z" fill="url(#goldRose)" opacity="1"/>
    <path d="M760 260 C762.88 278.72 765.28 281.12 784 284 C765.28 286.88 762.88 289.28 760 308 C757.12 289.28 754.72 286.88 736 284 C754.72 281.12 757.12 278.72 760 260Z" fill="#d99a8b" opacity="0.84"/>
    <path d="M516 802 C518.16 816.04 519.96 817.84 534 820 C519.96 822.16 518.16 823.96 516 838 C513.84 823.96 512.04 822.16 498 820 C512.04 817.84 513.84 816.04 516 802Z" fill="#cfa15f" opacity="0.72"/>
</svg>