<?xml version="1.0" encoding="UTF-8"?>
<svg xmlns="http://www.w3.org/2000/svg" width="1024" height="1024" viewBox="0 0 1024 1024" fill="none">
  <defs>
    <linearGradient id="goldRose" x1="0%" x2="100%" y1="0%" y2="100%">
      <stop offset="0%" stop-color="#f3d89f"/>
      <stop offset="50%" stop-color="#d99a8b"/>
      <stop offset="100%" stop-color="#cfa15f"/>
    </linearGradient>
    <linearGradient id="creamBlush" x1="0%" x2="100%" y1="0%" y2="100%">
      <stop offset="0%" stop-color="#fffaf1"/>
      <stop offset="100%" stop-color="#f5c6ce"/>
    </linearGradient>
    <linearGradient id="roseDeep" x1="0%" x2="0%" y1="0%" y2="100%">
      <stop offset="0%" stop-color="#c56f82"/>
      <stop offset="100%" stop-color="#a8586c"/>
    </linearGradient>
    <linearGradient id="goldShine" x1="0%" x2="100%" y1="0%" y2="0%">
      <stop offset="0%" stop-color="#cfa15f" stop-opacity="0.4"/>
      <stop offset="50%" stop-color="#f3d89f" stop-opacity="0.9"/>
      <stop offset="100%" stop-color="#cfa15f" stop-opacity="0.4"/>
    </linearGradient>
    <radialGradient id="softGlow" cx="50%" cy="48%" r="55%">
      <stop offset="0%" stop-color="#ffffff" stop-opacity="0.95"/>
      <stop offset="45%" stop-color="#f5c6ce" stop-opacity="0.5"/>
      <stop offset="100%" stop-color="#d99a8b" stop-opacity="0"/>
    </radialGradient>
    <radialGradient id="warmGlow" cx="50%" cy="50%" r="50%">
      <stop offset="0%" stop-color="#f3d89f" stop-opacity="0.6"/>
      <stop offset="60%" stop-color="#cfa15f" stop-opacity="0.2"/>
      <stop offset="100%" stop-color="#cfa15f" stop-opacity="0"/>
    </radialGradient>
    <filter id="gentleShadow" x="-20%" y="-20%" width="140%" height="140%" color-interpolation-filters="sRGB">
      <feDropShadow dx="0" dy="22" stdDeviation="28" flood-color="#11172d" flood-opacity="0.18"/>
    </filter>
    <filter id="innerGlow" x="-30%" y="-30%" width="160%" height="160%" color-interpolation-filters="sRGB">
      <feGaussianBlur stdDeviation="8" result="blur"/>
      <feComposite in="SourceGraphic" in2="blur" operator="over"/>
    </filter>
  </defs>
  <path d="M190 570 C312 336 650 314 724 496 C774 620 642 728 538 650 C454 586 488 466 578 476 C640 482 666 560 614 594" stroke="url(#goldRose)" stroke-width="28" stroke-linecap="round" stroke-linejoin="round" filter="url(#gentleShadow)"/>
    <path d="M282 650 C408 768 596 788 742 684" stroke="#d99a8b" stroke-width="14" stroke-linecap="round" opacity="0.85"/>
    <path d="M252 314 C256.32 342.08 259.92 345.68 288 350 C259.92 354.32 256.32 357.92 252 386 C247.68 357.92 244.08 354.32 216 350 C244.08 345.68 247.68 342.08 252 314Z" fill="url(#goldRose)" opacity="1"/>
    <path d="M772 380 C775.6 403.4 778.6 406.4 802 410 C778.6 413.6 775.6 416.6 772 440 C768.4 416.6 765.4 413.6 742 410 C765.4 406.4 768.4 403.4 772 380Z" fill="#d99a8b" opacity="0.88"/>
    <path d="M466 712 C468.64 729.16 470.84 731.36 488 734 C470.84 736.64 468.64 738.84 466 756 C463.36 738.84 461.16 736.64 444 734 C461.16 731.36 463.36 729.16 466 712Z" fill="#cfa15f" opacity="0.78"/>
</svg>