<?xml version="1.0" encoding="UTF-8"?>
<svg xmlns="http://www.w3.org/2000/svg" width="1024" height="1024" viewBox="0 0 1024 1024" fill="none">
  <defs>
    <linearGradient id="goldRose" x1="0%" x2="100%" y1="0%" y2="100%">
      <stop offset="0%" stop-color="#f3d89f"/>
      <stop offset="50%" stop-color="#d99a8b"/>
      <stop offset="100%" stop-color="#cfa15f"/>
    </linearGradient>
    <linearGradient id="creamBlush" x1="0%" x2="100%" y1="0%" y2="100%">
      <stop offset="0%" stop-color="#fffaf1"/>
      <stop offset="100%" stop-color="#f5c6ce"/>
    </linearGradient>
    <linearGradient id="roseDeep" x1="0%" x2="0%" y1="0%" y2="100%">
      <stop offset="0%" stop-color="#c56f82"/>
      <stop offset="100%" stop-color="#a8586c"/>
    </linearGradient>
    <linearGradient id="goldShine" x1="0%" x2="100%" y1="0%" y2="0%">
      <stop offset="0%" stop-color="#cfa15f" stop-opacity="0.4"/>
      <stop offset="50%" stop-color="#f3d89f" stop-opacity="0.9"/>
      <stop offset="100%" stop-color="#cfa15f" stop-opacity="0.4"/>
    </linearGradient>
    <radialGradient id="softGlow" cx="50%" cy="48%" r="55%">
      <stop offset="0%" stop-color="#ffffff" stop-opacity="0.95"/>
      <stop offset="45%" stop-color="#f5c6ce" stop-opacity="0.5"/>
      <stop offset="100%" stop-color="#d99a8b" stop-opacity="0"/>
    </radialGradient>
    <radialGradient id="warmGlow" cx="50%" cy="50%" r="50%">
      <stop offset="0%" stop-color="#f3d89f" stop-opacity="0.6"/>
      <stop offset="60%" stop-color="#cfa15f" stop-opacity="0.2"/>
      <stop offset="100%" stop-color="#cfa15f" stop-opacity="0"/>
    </radialGradient>
    <filter id="gentleShadow" x="-20%" y="-20%" width="140%" height="140%" color-interpolation-filters="sRGB">
      <feDropShadow dx="0" dy="22" stdDeviation="28" flood-color="#11172d" flood-opacity="0.18"/>
    </filter>
    <filter id="innerGlow" x="-30%" y="-30%" width="160%" height="160%" color-interpolation-filters="sRGB">
      <feGaussianBlur stdDeviation="8" result="blur"/>
      <feComposite in="SourceGraphic" in2="blur" operator="over"/>
    </filter>
  </defs>
  <g>
      <path d="M512 372 C523.52 446.88 533.12 456.48 608 468 C533.12 479.52 523.52 489.12 512 564 C500.48 489.12 490.88 479.52 416 468 C490.88 456.48 500.48 446.88 512 372Z" fill="#cfa15f" opacity="0.92"/>
      <path d="M330 326 C334.08 352.52 337.48 355.92 364 360 C337.48 364.08 334.08 367.48 330 394 C325.92 367.48 322.52 364.08 296 360 C322.52 355.92 325.92 352.52 330 326Z" fill="#d99a8b" opacity="0.82"/>
      <path d="M700 328 C705.04 360.76 709.24 364.96 742 370 C709.24 375.04 705.04 379.24 700 412 C694.96 379.24 690.76 375.04 658 370 C690.76 364.96 694.96 360.76 700 328Z" fill="#cfa15f" opacity="0.74"/>
      <path d="M724 622 C727.36 643.84 730.16 646.64 752 650 C730.16 653.36 727.36 656.16 724 678 C720.64 656.16 717.84 653.36 696 650 C717.84 646.64 720.64 643.84 724 622Z" fill="#d99a8b" opacity="0.7"/>
      <path d="M310 626 C312.88 644.72 315.28 647.12 334 650 C315.28 652.88 312.88 655.28 310 674 C307.12 655.28 304.72 652.88 286 650 C304.72 647.12 307.12 644.72 310 626Z" fill="#cfa15f" opacity="0.65"/>
      <path d="M310 540 C416 476 602 476 714 540" stroke="#cfa15f" stroke-width="9" stroke-linecap="round" opacity="0.42"/>
      <path d="M344 588 C440 636 582 636 680 588" stroke="#d99a8b" stroke-width="7" stroke-linecap="round" opacity="0.36"/>
      <circle cx="512" cy="468" r="38" fill="#fff7ea" opacity="0.25"/>
    </g>
</svg>