<?xml version="1.0" encoding="UTF-8"?>
<svg xmlns="http://www.w3.org/2000/svg" width="1024" height="1024" viewBox="0 0 1024 1024" fill="none">
  <defs>
    <linearGradient id="goldRose" x1="0%" x2="100%" y1="0%" y2="100%">
      <stop offset="0%" stop-color="#f3d89f"/>
      <stop offset="50%" stop-color="#d99a8b"/>
      <stop offset="100%" stop-color="#cfa15f"/>
    </linearGradient>
    <linearGradient id="creamBlush" x1="0%" x2="100%" y1="0%" y2="100%">
      <stop offset="0%" stop-color="#fffaf1"/>
      <stop offset="100%" stop-color="#f5c6ce"/>
    </linearGradient>
    <linearGradient id="roseDeep" x1="0%" x2="0%" y1="0%" y2="100%">
      <stop offset="0%" stop-color="#c56f82"/>
      <stop offset="100%" stop-color="#a8586c"/>
    </linearGradient>
    <linearGradient id="goldShine" x1="0%" x2="100%" y1="0%" y2="0%">
      <stop offset="0%" stop-color="#cfa15f" stop-opacity="0.4"/>
      <stop offset="50%" stop-color="#f3d89f" stop-opacity="0.9"/>
      <stop offset="100%" stop-color="#cfa15f" stop-opacity="0.4"/>
    </linearGradient>
    <radialGradient id="softGlow" cx="50%" cy="48%" r="55%">
      <stop offset="0%" stop-color="#ffffff" stop-opacity="0.95"/>
      <stop offset="45%" stop-color="#f5c6ce" stop-opacity="0.5"/>
      <stop offset="100%" stop-color="#d99a8b" stop-opacity="0"/>
    </radialGradient>
    <radialGradient id="warmGlow" cx="50%" cy="50%" r="50%">
      <stop offset="0%" stop-color="#f3d89f" stop-opacity="0.6"/>
      <stop offset="60%" stop-color="#cfa15f" stop-opacity="0.2"/>
      <stop offset="100%" stop-color="#cfa15f" stop-opacity="0"/>
    </radialGradient>
    <filter id="gentleShadow" x="-20%" y="-20%" width="140%" height="140%" color-interpolation-filters="sRGB">
      <feDropShadow dx="0" dy="22" stdDeviation="28" flood-color="#11172d" flood-opacity="0.18"/>
    </filter>
    <filter id="innerGlow" x="-30%" y="-30%" width="160%" height="160%" color-interpolation-filters="sRGB">
      <feGaussianBlur stdDeviation="8" result="blur"/>
      <feComposite in="SourceGraphic" in2="blur" operator="over"/>
    </filter>
  </defs>
  <path d="M144 418 H880 L788 516 L880 614 H144 L236 516 L144 418Z" fill="#11172d" stroke="url(#goldRose)" stroke-width="18" filter="url(#gentleShadow)"/>
    <path d="M236 516 H788" stroke="#cfa15f" stroke-width="9" stroke-linecap="round" opacity="0.7"/>
    <path d="M318 492 C320.64 509.16 322.84 511.36 340 514 C322.84 516.64 320.64 518.84 318 536 C315.36 518.84 313.16 516.64 296 514 C313.16 511.36 315.36 509.16 318 492Z" fill="#fff7ea" opacity="1"/>
    <path d="M706 492 C708.64 509.16 710.84 511.36 728 514 C710.84 516.64 708.64 518.84 706 536 C703.36 518.84 701.16 516.64 684 514 C701.16 511.36 703.36 509.16 706 492Z" fill="#fff7ea" opacity="1"/>
    <circle cx="512" cy="516" r="42" fill="#fff7ea" stroke="#cfa15f" stroke-width="10"/>
    <path d="M490 516 C502 494 522 494 534 516 C522 540 502 540 490 516Z" fill="#c56f82"/>
</svg>