<?xml version="1.0" encoding="UTF-8"?>
<svg xmlns="http://www.w3.org/2000/svg" width="1024" height="1024" viewBox="0 0 1024 1024" fill="none">
  <defs>
    <linearGradient id="goldRose" x1="0%" x2="100%" y1="0%" y2="100%">
      <stop offset="0%" stop-color="#f3d89f"/>
      <stop offset="50%" stop-color="#d99a8b"/>
      <stop offset="100%" stop-color="#cfa15f"/>
    </linearGradient>
    <linearGradient id="creamBlush" x1="0%" x2="100%" y1="0%" y2="100%">
      <stop offset="0%" stop-color="#fffaf1"/>
      <stop offset="100%" stop-color="#f5c6ce"/>
    </linearGradient>
    <linearGradient id="roseDeep" x1="0%" x2="0%" y1="0%" y2="100%">
      <stop offset="0%" stop-color="#c56f82"/>
      <stop offset="100%" stop-color="#a8586c"/>
    </linearGradient>
    <linearGradient id="goldShine" x1="0%" x2="100%" y1="0%" y2="0%">
      <stop offset="0%" stop-color="#cfa15f" stop-opacity="0.4"/>
      <stop offset="50%" stop-color="#f3d89f" stop-opacity="0.9"/>
      <stop offset="100%" stop-color="#cfa15f" stop-opacity="0.4"/>
    </linearGradient>
    <radialGradient id="softGlow" cx="50%" cy="48%" r="55%">
      <stop offset="0%" stop-color="#ffffff" stop-opacity="0.95"/>
      <stop offset="45%" stop-color="#f5c6ce" stop-opacity="0.5"/>
      <stop offset="100%" stop-color="#d99a8b" stop-opacity="0"/>
    </radialGradient>
    <radialGradient id="warmGlow" cx="50%" cy="50%" r="50%">
      <stop offset="0%" stop-color="#f3d89f" stop-opacity="0.6"/>
      <stop offset="60%" stop-color="#cfa15f" stop-opacity="0.2"/>
      <stop offset="100%" stop-color="#cfa15f" stop-opacity="0"/>
    </radialGradient>
    <filter id="gentleShadow" x="-20%" y="-20%" width="140%" height="140%" color-interpolation-filters="sRGB">
      <feDropShadow dx="0" dy="22" stdDeviation="28" flood-color="#11172d" flood-opacity="0.18"/>
    </filter>
    <filter id="innerGlow" x="-30%" y="-30%" width="160%" height="160%" color-interpolation-filters="sRGB">
      <feGaussianBlur stdDeviation="8" result="blur"/>
      <feComposite in="SourceGraphic" in2="blur" operator="over"/>
    </filter>
  </defs>
  <g>
      <path d="M190 708 C304 758 696 758 834 704" stroke="#cfa15f" stroke-width="8" stroke-linecap="round" opacity="0.22"/>
      <path d="M226 392 H798 V656 H226 Z" fill="#fff7ea" fill-opacity="0.96" stroke="url(#goldRose)" stroke-width="18" stroke-linejoin="round"/>
      <rect x="260" y="426" width="504" height="198" rx="16" fill="none" stroke="#11172d" stroke-width="4" opacity="0.14"/>
      <path d="M236 404 L512 574 L788 404" fill="none" stroke="#d99a8b" stroke-width="14" stroke-linecap="round" stroke-linejoin="round"/>
  <path d="M236 648 L454 512" fill="none" stroke="#cfa15f" stroke-width="8" stroke-linecap="round"/>
  <path d="M788 648 L570 512" fill="none" stroke="#cfa15f" stroke-width="8" stroke-linecap="round"/>
      <circle cx="512" cy="526" r="44" fill="#11172d" stroke="#cfa15f" stroke-width="8"/>
  <mask id="clearEnvelopeMoon"><rect width="1024" height="1024" fill="white"/><circle cx="528" cy="514" r="34" fill="black"/></mask>
  <circle cx="504" cy="526" r="40" fill="#fff7ea" mask="url(#clearEnvelopeMoon)"/>
  <polygon points="538,520 540.5,527.6698729810778 548.3923048454133,526 543,532 548.3923048454133,538 540.5,536.3301270189222 538,544 535.5,536.3301270189222 527.6076951545867,538 533,532 527.6076951545867,526 535.5,527.6698729810778" fill="#cfa15f"/>
      <path d="M512 216 C516.08 242.52 519.48 245.92 546 250 C519.48 254.08 516.08 257.48 512 284 C507.92 257.48 504.52 254.08 478 250 C504.52 245.92 507.92 242.52 512 216Z" fill="#cfa15f" opacity="0.86"/>
      <path d="M236 296 C238.64 313.16 240.84 315.36 258 318 C240.84 320.64 238.64 322.84 236 340 C233.36 322.84 231.16 320.64 214 318 C231.16 315.36 233.36 313.16 236 296Z" fill="#d99a8b" opacity="0.72"/>
      <path d="M800 298 C802.64 315.16 804.84 317.36 822 320 C804.84 322.64 802.64 324.84 800 342 C797.36 324.84 795.16 322.64 778 320 C795.16 317.36 797.36 315.16 800 298Z" fill="#d99a8b" opacity="0.72"/>
      <path d="M214 658 C216.16 672.04 217.96 673.84 232 676 C217.96 678.16 216.16 679.96 214 694 C211.84 679.96 210.04 678.16 196 676 C210.04 673.84 211.84 672.04 214 658Z" fill="#cfa15f" opacity="0.52"/>
      <path d="M812 658 C814.16 672.04 815.96 673.84 830 676 C815.96 678.16 814.16 679.96 812 694 C809.84 679.96 808.04 678.16 794 676 C808.04 673.84 809.84 672.04 812 658Z" fill="#cfa15f" opacity="0.52"/>
    </g>
</svg>